<svg width="105.04" height="51.826" viewBox="0 0 27.792 13.712" xmlns="http://www.w3.org/2000/svg"><g style="fill:bisque;fill-opacity:1"><path d="m120.06 43.42.058.02-.014.034-.019.008-.056-.026.011-.027zm-.342.308.057.026.023-.01.011-.027.02-.009.026.011.01.02.015.088.216-.165.027.011.019-.008.165-.115.038-.016.016.038-.374.282.009.019.062-.026.016.038-.062.026.018.043q.08-.035.097.004l-.027.056-.054-.022.016.038.045.054-.01.027-.02.008-.067-.039-.102.089-.02.009-.007-.02q-.035-.08.084-.13-.179-.065-.35.007l-.027-.01-.024.01-.018-.043.024-.01.065-.005-.01-.02.017-.028-.01-.02-.06-.024-.01-.019.043-.018.103.03.062-.027-.01-.023-.063-.041zm-.166-.76.024-.011.271.373-.027.068.251.275.087.204.25.14.06.139q.328.523.673.938l-.014.034-.023.01.116.142-.027.067.028.067.078.051-.014.034.122.167.013-.034.048-.02q.055.128.358.393.097.228.476.42l.106.118.03.072q-.047.02-.088-.075l-.023.01.016.105.034.014q.028.067.166.008.222.417.77.847.881.726.925.83l.036.148q.34.063 1.074.414.72.03.765.135l-.048.02.02.048.048-.02-.02-.048.047-.02q.086-.036.245.008l.014-.033.13-.027.066-.029q-.04-.095.121-.163.334-.496.178-.862-.222-.338-.526-.209l-.02.009q-.232.099-.166.256.107.145.207.103.086-.087.076-.139l-.02-.048-.097-.043-.075.088-.03-.015-.01-.024.049-.071.023-.01q.21-.09.286.091.085.2-.181.352l-.067.029q-.356.061-.45-.162l-.03-.072q-.05-.355.277-.494l.024-.01q.666-.284 1.01.194l.092.151.038.09q.23.543-.369 1.247l-.104.072-.509.216q-.842.358-1.425.174-.68.036-1.425-.54-.07.007-.28-.207-.41-.241-1.25-.446-.046-.11-.51-.115-.379-.192-.63-.136l-.01-.024.013-.034-.01-.023q-.47.059-.497-.008l-.01.032-.07.03q-.694.02-1.027.082-.191.845-.695 1.958.004.391-.614 1.052.026.062-.333.434-.119.05-.295-.06l-.107-.252q.057-.025.016-.147.08-.22.35-.39l.042-.103.034.014.023-.01q.11-.047.317-.404.292-.226.623-1.164.338-.553.239-.786l.052-.129-.378.077q-1.298.658-1.179.939l.053.056.047-.02.106-.068-.074-.108.047-.02.097.042q.09.21-.259.408-.22.065-.248-.001l-.048-.114q-.115-.272.625-.895.226-.18.802-.425l.505-.158-.01-.024q.282-.737.258-.924.138-.311.254-1.332.084-.412.015-.798l.136-1.529-.097-.228q-.054-.129.036-.234zm.54-.011.024-.01.1.036-.014.034-.024.01-.078-.051zm-.031.176.074-.01.02.048-.042.018-.068-.027zm-4.931 2.746.034.014.01.024-.013.034-.048.02-.01-.024zm4.65-1.677.02.047.047-.02.01.024.104-.073-.067-.027zm.297.12.02.047.067-.028-.02-.047zm-4.569 1.998.047-.02.029.066-.048.02zm4.236-1.368q-.022 1.189-.325 2.564l-.134.517q.261-.111 1.796-.134.546.122.703.055l.263.051-.02-.048q-.319-.246-.592-.888-.511-.451-1.667-2.127zm-2.91 2.19.096-.04.02.048-.095.04zm4.302-1.664.01.024.083.128.023-.01-.028-.067-.064-.085zm-3.305 1.949q.126-.02.145.023l-.014.034q-.128.015-.144-.023zm.197.08.043-.019.03.071-.023.066-.034-.014-.01-.023zm4.017-1.051.029.067.063.029-.015-.1zm.143.018.04.095.048-.02-.02-.048zm-1.664.763.024-.01.068.027-.016.029-.024.01-.031-.008zm.853-.306.028.066.09-.038-.01-.024-.066-.022zm-2.22 1.05.01.024.019-.009.06-.054-.02-.047zm4.01.665.03.072.08-.062.082-.007-.102-.041-.01-.024zm-5.291 2.546.03.071.028-.067-.01-.024zm-.363.295.028.066.024-.01.027-.068-.009-.019zm5.678-2.334.067-.029.066.023.01.024-.061.054-.071-.049zm-5.03 2.328.138-.059.018.043q-.052.022-.083.12l-.043.018-.02-.047.042-.019-.033-.013zm5.31-2.121.042-.018q.144-.045.166.008l-.094.096-.034-.014-.01-.024.016-.029q-.067.028-.087-.019zm-5.018 2.16.204-.037.153-.087.061.024.048-.02q-.029-.067.019-.087l.03.016.017.043q.02.047-.046.075-.461.196-.5.106zm6.238-2.353.03.071.048-.02-.03-.071zm-.751.347q.063-.01.217.127l-.01.032-.023.01-.164-.121zm.894-.274.03.072.043-.018-.03-.072zm.17.148.02.047.071-.03-.02-.048zm-5.767 3.46.027.012.01.023-.022.066-.034-.014-.01-.023zm-.201.109.023-.01.068.026.01.024-.023.01-.068-.027zm.657.001.062-.026.083.037-.01.027-.02.009-.099-.008zm-1.065.492.038-.016.176.15.024.057-.02.008.028.011.02.104.033.076.038-.016q-.04-.096-.002-.112l.01.02.01-.028.038-.016.057.133q-.093.045-.07.098l.024.057.018-.009-.013-.084.038-.016.057.133.01-.027.02-.009.084-.013-.01-.02-.026-.01-.01-.02.039-.015q.024.057.062.04l.144-.083-.027-.011-.009-.02.24-.123.024.057.057-.024q.155-.111.139-.15l.103-.02.057-.024.022-.055.027.011.514-.218.027.011.128-.122.263-.067.011-.027.054.022.59-.25-.009-.02-.446.167-.016-.038.05-.043.103-.02.133-.058.258-.132q.088.008.367-.088l-.011.027.008.02.144-.085.187-.034.076-.033.016.038.213-.135.016.038.076-.032-.027-.011-.016-.038.038-.016.016.038.019-.009.087-.06.18-.053.19-.08.026.01.011-.027.096-.04.14-.038.017.038-.114.049.008.019.437-.186-.016-.038.723-.307-.016-.038q.715-.327.699-.365l.009.02-.011.027.008.019.027.01-.02.01.028.01.016.038-.342.146-.017-.038-.17.072.015.038-.095.04-.6.279.016.038-.506.237-.095.04q-.038.017-.062-.04l-.076.032-.066.005-.106.067-.657.302q-.02-.047-.1-.024l-.56.215-.044-.049-.133.057-.016-.038.114-.049-.008-.02-.057.025-.144.084.009.019q.057-.024.073.014l.114-.049.016.038-.152.065-.073-.014-.152.065.016.038-.133.056-.378.116.09.052.024.057-.044.108q-.016-.038-.092-.006l-.027-.01-.008-.02.024-.1-.103.021-.253.197-.378.116q.04.095-.016.12l.06.086-.134.057.008.02.038-.017.054.022.016.038-.092-.006q.04.095-.036.128l-.027-.011-.016-.038.057-.025-.008-.019q-.116-.062-.154-.046l-.017-.038.038-.017-.027-.01-.008-.02q.057-.024.033-.08l-.027-.012-.133.057.016.038.027.01.01.02-.012.027-.019.008-.086-.097-.194.127-.027-.011-.019.008q-.11.058-.098.087l-.027-.011-.019.008-.01.027-.02.009q-.016-.038-.073-.014l-.082.125-.038.016-.024-.057-.038.016.103.136-.068.051.027.011.008.02.078.236.051.068.02-.009-.13-.304.038-.016.009.019.143.231-.038.016.065.152-.014.073.081.033.04.095.014.085.051.068-.052.09.154.203-.01.027-.02.009-.162-.223.017-.12-.04-.095-.06-.087-.038.016.048.115-.032.08-.027-.01.01-.027-.024-.057-.054-.022.011-.027-.008-.02-.062-.04-.021-.104-.024-.057.057-.024.016.038-.011.027.008.02.019-.01.01-.026-.04-.095-.087.059-.027-.011-.016-.038.022-.054.016.038.076-.033q-.051-.068-.127-.035l-.011.027-.06-.087-.005-.065-.057.024-.016-.038.027.011.02-.009.021-.054.02-.008.048.114.019-.009-.086-.255-.027-.011-.02.008.01.02-.028-.012-.019.009q-.085.064-.062.116-.038.017-.063-.04l-.01.027-.039.016-.073-.014-.171.073.016.038-.019.008q-.024-.057-.081-.033l-.05.044-.377.115-.016-.038.171-.073-.008-.019-.21.09-.015-.039.038-.016q.347-.147.587-.204l.01-.028.017.038.057-.024-.054-.022q-.032-.076.082-.124l-.016-.038.127.035.011-.027.027.011.02-.008.086-.06-.009-.019-.027-.01-.008-.02q.057-.024.041-.062l-.009-.02-.146-.184.011-.027-.027-.011-.02.008-.004-.065-.11-.155zm1.314-.407.01.019-.036.088-.056-.027zm-.473.431.032.076.057-.024.011-.027.02-.009.032.077-.02.008-.168.027-.009-.019zm-1.248.553.027.01.008.02-.021.054-.028-.01-.008-.02zm.158 0 .019-.008.1.024-.095.041zm1.405-.552.024.057-.038.016-.01-.018zm1.331-.566.028.011.024.057-.02.01-.053-.023zm1.332-.565.038-.017.016.038-.068.052-.008-.02zm-2.903 1.255.055.022.008.02-.038.016-.055-.022.011-.027zm-1.136.55.095-.04.017.038-.068.052-.028-.011zm3.78-1.516.01.02.075-.033-.009-.02zm-1.981.887.009.019.103-.021.038-.016-.016-.038zm.152-.065.016.038.011-.027.02-.008.084-.014-.017-.038zm.237-.078.009.02.114-.05-.008-.018zm-.509.284.049.114.081-.125-.016-.038zm-.614.35.057-.024.016.038-.065.005zm.252-.04.038-.016.032.076-.108.114q-.058.024-.041.062l-.038.016-.13.01-.017-.037.084-.014.041-.062.027.011.02-.009q.032-.08.108-.113zm.26-.02.093.005.021.103-.019.01q-.022-.053-.106-.09zm-.105.067.054.022-.011.027-.02.009zm-.973.458.019-.008.016.038-.022.054-.027-.01-.01-.02zm1.016-.409.057-.024-.011.027.008.019.1.025.008.019-.038.016q-.033.014-.124-.082zm.4-.17.018-.008-.021.054-.02.008zm-.734.335.027.01.016.039-.05.043-.026-.011-.011.027-.016-.038zm.122-.03.095-.04.103.136-.011.027-.038.016q-.025-.057-.082-.033l-.009-.019.014-.073-.009-.02-.019.01-.01.027-.02.008zm1.092-.442.027.011.008.02-.01.026-.02.01-.027-.012-.009-.019.011-.027zm-.63.313.032.076-.02.009-.042-.05.01-.026zm-.098.087.038-.016.008.019.005.065-.02.008zm.663-.237.019-.009.054.022-.057.024zm-.041.062.016.038.027.011-.011.027-.02.009.028.011.008.02-.019.008-.054-.022.022-.054-.027-.011.01-.027zm-1.153.512.104-.02.01-.028.025.057-.095.04-.027-.01-.08.078-.026-.01-.01-.02zm1.264-.514.038-.016.051.068.005.065-.038.016.011-.027-.06-.087zm-.639.294.057-.025.055.022-.096.04zm.723-.308.02-.008.053.022-.01.027.054.022.009.019-.02.008q-.065.005-.105-.09zm-1.171.52.019-.008q.088-.004.1.025l.204-.154.027.01.016.039-.038.016-.125.075.01.02q.048.114.18.057l-.032.081-.228-.06-.008-.02.057-.023-.009-.02-.103.022-.01.027zm-.123.188.062.04.017.039-.02.008-.08-.033zm1.13-.458-.032.081-.055-.022zm-.581.27.038-.017.016.038-.022.054-.027-.01zm-.373.18.09.052-.076.032-.044-.049.011-.027zm1.006-.382.027.01.019-.008.005.065-.019.009zm4.74-12.611q.808-.01.832.31l.025.06q.023.299-.379.464l-.02.002q-.28-.124-.292-.289l-.002-.02.038-.045q.052.141.176.132.118-.01.171-.2-.01-.144-.239-.147l-.227.017.003.041-.04.004q-.382.029-.456.822l.24 3.154q.308-.32.297-.458.077-.006.225-.308.586-.812.87-.833l.08-.027q.336-.026.707.298.284.46.304.723l.027.35q.011.145-.059.586l.073.678.009.124.044.038q.006.077-.101.298l.026.081q-.097.417-.512.89-.453.443-.872.522-.247.101-.468.118l-.041.004-.398-.053-.034.107.032.142-.038.045.04-.004.004.041-.067.213.022.019.02-.002.161-.074.106.033q.003.041-.14.052l.001.02q.052-.004.068.078.042-.003.046.06.243.058.412.237l.002.02-.019.023-.02.002q-.076-.114-.414-.259l-.041.004.022.019.002.02-.019.022q.004.062.138.177l-.019.022.022.019-.04.003.003.041.059-.046.002.021-.011.125.04-.003.02-.022.02-.002.003.04-.06.026.022.02.006.082q-.061.004-.068-.078l-.019.022-.02.002-.023-.02q.003.042-.14.074l.007.082.022.02.002.02-.038.044.062-.004q.087-.007.158-.095l.064.016-.002-.02.022.018.347-.068.002.02q.004.042-.242.082.004.04-.059.046l-.084-.015-.02.002.001.02.042-.003.002.02-.02.023.003.02.022.02-.162.053-.027-.08q-.165.012-.15.198l.002.04-.02.003-.044-.039-.021-.267-.02.001q.004.062-.037.065l-.044-.038q.024-.085.055-.087l.022.019.02-.022-.009-.103-.062.004.046.059-.019.022-.185.014.004.041q.124-.01.127.032l-.103.008.002.02.022.02.002.02-.02.022-.02.002-.046-.059-.009-.123.02-.022-.003-.021-.04.003-.02.023-.02.001-.023-.019.02-.022-.004-.04-.101.028.019-.022-.002-.02q-.083.005-.086-.036l-.002-.02.02-.023-.003-.02.192.068-.011-.144q-.083.006-.086-.035l.02-.022-.003-.02.127.03-.019.023.006.083.041-.004q-.009-.124.053-.128l.022.019.002.02-.02.002q.027.086.112.116l.041-.004-.046-.058.019-.022-.067-.058.02-.022.02-.002.025.06.042-.003-.03-.101-.003-.041.041-.004-.009-.124q-.041.004-.048-.079l-.061.004.028.102-.022-.02-.02.003.004.04-.062.005-.095-.159-.003-.04.022.018.02-.002-.002-.02q-.036-.142-.093-.138l.004.041-.041.004-.004-.042.036-.065-.003-.04q-.062.004-.065-.037l.02-.022q.061-.005.136.155l.02-.002.02-.022.02-.002.044.038-.019.023.004.062.041-.004.038-.044-.022-.02.035-.085q-.017-.082-.068-.078l-.003-.041.06-.025-.071-.12q-.007-.092.114-.132l.022.019.02-.023-.003-.02-.04.003q-.007-.082-.09-.076l.02-.022-.002-.02-.027-.081.016-.064-.023-.019-.04.004q.003.062-.058.066l-.016.064-.022-.02-.082.007-.078.068-.02.002-.005-.062-.144.01-.004-.04.101-.03.023.02.035-.086q-.128-.037-.232-.314-.129.01-.277-.642-.017-.222-.103-.262l-.091-.926-.017-.226q.07-.441.027-.998l-.12-.488-.017-.496-.08-.761q.064-.259.052-.419l-.05-.12q.103-.604.385-.921.443-.449.896-.483-.004-.041.1-.05zm-1.794.676.045.038.008.103-.038.044-.023-.019-.002-.02.015-.084-.045-.038.02-.022zm-.673.134.022.02.002.02-.038.044-.023-.019-.002-.02zm-.077.089.023.019.002.02-.02.023-.102.008-.003-.042zm.124-.01.02-.001.045.038.004.062-.041.003zm.523.064q.041-.003.046.059l.02-.002.02-.022.02-.002.023.02.002.02-.02.022-.061.004-.089-.076.019-.022zm-.694.406.062-.005.003.042-.062.004zm5.04.59.003.02-.056.087-.022-.02-.002-.02q-.003-.03.078-.068zm.145-.012.022.02.002.02-.019.022-.02.002-.023-.02-.002-.02.02-.022zm.556-.042.021-.002.008.103-.038.044-.022-.019-.002-.02.019-.023-.022-.019-.002-.02zm-.566.188.023.019.002.02-.02.023-.02.002-.022-.02-.002-.02.019-.022zm-1.25.469.021-.002.105.013.003.04-.02.002-.105-.012zm1.775-.115.08.242-.018.023-.021.001-.08-.242.018-.022zm-1.606.143.062-.004.066.057-.125-.011zm.17.05.02-.002.044.038-.061.004zm1.347 0 .022.02.002.02-.019.022-.02.002-.023-.02-.002-.02.02-.022zm-.47.078.02-.002.044.038.004.041-.02.002-.045-.038zm.827-.022q.085.025.087.055l-.038.045-.068-.078zm-.593.377.022.019.002.02-.02.023-.02.001-.022-.019-.002-.02.019-.022zm-2.86 1.649.026.06q-.078.006-.023 1.328.235.646.36.636.004.067.302.164.608-.047.782-.62l.213-.742-.023-.019-.002-.02.024-.23-.04.003-.005-.04.005-.208.02-.002.023.019.02-.002-.008-.103-.153-.652q-.146-.693-.424-.672l-.062.004q-.377.029-.8.662-.087.007-.122.3zm.983-.158.045.038-.02.022.023.019-.02.022-.02.002-.046-.059zm-3.221.432.022.02.003.04-.02.002-.045-.038.019-.022zm3.793-.269q.042-.003.072.12l-.041.003zm-.507.143q.085.024.087.055-.065.026-.076.089-.207-.005-.21-.046l.018-.022.023.019.103-.008zm-2.64.989.022.019.002.02-.019.023-.02.002-.023-.02-.002-.02.02-.022zM124.877 49l.062-.004.004.041-.062.005zm.272.042.023.019.002.02-.038.045-.023-.02-.002-.02zm1.124.06.023.018.002.02-.02.023-.02.002-.022-.02-.002-.02.019-.022zm-1.173.11.044.038-.019.022-.02.002-.044-.039.019-.022zm1.57-.079.082-.006.003.041-.082.006zm-2.307.197.022.019.002.02-.019.023-.02.002-.023-.02-.002-.02.02-.022zm.932-.01.022.02.004.041-.02.002-.045-.038.02-.022zm-.816.167.022.019.002.02-.02.023-.02.002-.022-.02-.002-.02.019-.022zm1.633-.063.004.042-.06.025-.023-.02-.002-.02.02-.022zm-1.05.101.041-.003.003.041-.038.044-.022-.019zm1.08.022.044.038-.038.044-.045-.038zm.396.031.082-.006.004.042-.082.006zm-1.503.136.044.038-.019.022-.02.002-.045-.038.02-.022zm.972-.033.022.02.002.02-.02.022-.02.002-.022-.02-.002-.02.02-.022zm.66-.05.04-.004.045.038-.02.023-.063-.016zm-1.13.148.02.268.045.038-.002-.02-.022-.02-.002-.02.02-.002.066.037.04-.004-.001-.02q-.004-.041-.13-.073l-.002-.02.019-.023-.022-.02.012-.104-.002-.02zm.558-.022.023.02.004.04-.02.002-.045-.038.019-.022zm1.117-.043.002.02q-.025.085-.056.087l-.02.002q.033-.1.074-.11zm-1.95.522.025.06.076-.089-.041.004zm1.228.072.002.02-.038.045-.124.01-.004-.042zm4.324-5.35.018.018q-.038.09-.069.085l-.015-.002q.03-.106.066-.1zm1.278-1.592.022.029-.005.03-.03.023-.025-.004-.027-.03.005-.03.034-.022zm-.052.186.026.003.044.058-.03.028-.021-.035-.026-.003-.035.026-.025-.003.005-.03zm.237.058.026.004.048.064-.034.021-.025-.003-.022-.03zm-2.403.557.072.01-.006.046-.072-.01zm1.71.235.051.007-.01.072.046.006.024-.023.026.004.022.029-.02.143-.05-.007q.012-.097-.151-.12l.003-.02zm-.558.189.022.03-.006.045-.025-.003-.04-.053.029-.022zm.96.231q.05.007.048.174l-.024.023-.025-.004-.052-.153zm-3.044-.398-.003.026-.082.062-.04-.053zm1.875.284q.046.007.088.232.051.007.041.078l.092.013-.012-.1.04-.095.002-.02-.028.017-.02-.003.008-.066.046.006q.046.007.034.099l.081-.062q.476.222.483.358.617.633.488 1.57l-.012.092q-.075.543-.353.969l-.046-.007.006-.046-.025-.003-.118.176.04.053-.39.359.014-.098-.025-.003q-.03.215-.41.356-.45.277-1.14.182-.845-.116-1.214-1.038l.042-.114-.03.022-.02-.003q-.06-.097-.048-.179l.074-.01.01-.072-.05-.007-.007.046-.02-.002q-.097-.014-.052-.685l.023-.17q.086-.624.451-1.002l.022.03q.02-.07.46-.35.19-.161.21-.31.584-.305 1.265-.211zm.097.014.02.002.045.053-.003.026zm-2.202-.183.04.052-.003.026-.04-.053zm2.39.375-.008.052.026.003.053-.045zm-.696.124-.03.069q-.141-.035-.137-.066-.416.031-.437.18-.061-.008-.2.238l-.029.022.016.076q-.219.152-.312.828l-.027.575-.051-.007-.01.072.029-.022.046.006-.003.026.012.293-.072-.01q.094.118.132.258l-.024.023-.003.02q.087.013.088.232.226.401.47.45l.26.037q.282.038.98-.591l-.045-.053.01-.072.075-.016.022.03.016-.118-.046-.007.003-.025.056-.066-.069-.03.033-.24.084-.422.004-.218-.046-.007.03-.215.046.007.006-.047q-.108-.014-.134-.43l.038-.089-.025-.003-.028.017-.02-.003-.024-.024.02-.143q-.118-.016-.257-.254-.185-.135-.427-.231l.006-.046zm-1.025-.094.085.064-.006.046-.18.095-.052.04-.051-.007q.043-.161.166-.144l-.017-.029.002-.02zm2.091.46-.029.022-.006.046.134.091.062-.111-.02-.002zm-.643.276.04.053-.023.018-.003.025-.088-.085.029-.017zm-.042.308.033.098-.024.023-.025-.003-.036-.079zm.506.19-.006.045.072.01.006-.046zm-2.215-.28-.006.047.062.081.025.004.006-.046-.062-.082zm1.706.45.046.006-.037.12-.046-.007zm-.12.348.022.029-.003.02-.03.022-.02-.002-.022-.029.003-.02.029-.023zm-1.531.394-.01.072.072.01.01-.072zm-.6-.035-.01.071.046.007.003-.02zm2.338.441.047.007-.01.071-.04-.052zm-1.814-.197-.006.046.072.01.006-.046zm2.624.794.023.029-.003.026-.053.04-.022-.03.003-.02zm-.314.009.04.052.029-.022.003-.02zm.317.503q.092.049.087.085l-.006.046-.025-.004-.079-.11zm-.102.059.018.023-.003.025-.105.08.009-.067zm-.172-.003.046.006-.024.023-.003.025.037.073-.007.052-.079-.11zm-.251.085.02.002.022.03.026.003.024-.023-.007.051-.096.008zm.264.162.051.007-.003.02-.029.022.022.03-.006.046-.057.039-.02-.003-.04-.052.07-.017-.018-.023zm-.435.013q.214.04.21.075l-.036.069-.046-.007q.01-.071-.134-.091zm.174.331.046.007-.02.143-.053.045-.022-.03.003-.025zm-.388-.027.052.007-.01.072-.058.04-.066-.01.003-.02zm-.03.523.018.023-.002.02-.047.036-.02-.002.006-.041zm-.055.556.027.108-.041-.006-.03-.088.023-.017zm4.207-5.705.011.027.019.008.027-.01.011.026-.008.02-.083.036-.027-.107.032-.009zm-.395-.075.061.027-.016.038-.062-.027zm.142.061.011.028.019.008.027-.011.02.008.007.099-.027.011-.043-.018-.045-.116zm.097.206.011.027-.01.024-.1.024-.043-.018.008-.02q.028-.038.134-.037zm.2.086.018.008-.008.019-.056.026-.02-.008.009-.02zm1.306.637.019.008.026.056-.008.02-.019-.009-.026-.056zm2.159 1.022.057.025-.018.042-.057-.024zm-3.535-1.498.091.062.261.113q.223.096.095.654l-.025.057-.25.46-.118.445-.277.471-.198.46-.063.041-.172.399q.051.168-.113.705.042.255.208.326.384.166.97-.054.02-.048.432-.286.142-.12.533-.856l.025-.057q.62-1.438.893-1.574.423-.172.764-.024.09.067.032.2l-.443.923-.02-.009-.212.494-.215.549.038.016-.033.076-.038-.016-.223.517-.096.054-.035.08q-.178.87.097.988l.038.016q.484.08.608-.21.037-.124-.105-.186-.086.03-.121.111l-.019-.008-.022-.054q.068-.157.213-.167l.057.024q.114.05.183.242l-.06.138q-.2.465-1.135.596-.045.104-.514-.008l-.028.011-.019-.008q-.327-.22-.446-.452-.095-.21.024-.485l.045-.054-.021-.054.086-.2-.027-.056q-.362.187-1.381.462-.154.097-.415-.016l-.081-.034q-.417-.18-.368-.295l-.249-.298q-.07-.385.145-.883l.124-.183.183-.58.094-.218.052-.237.026-.061.35-.744.21-.552q.059-.137-.173-.356-.171-.073-.355.157-.015.112.1.161l.11-.048-.025.057q-.156.101-.28.048l-.037-.016-.124-.104.067-.09.019-.11.032-.008.01.027.039.016.024-.057-.094-.04-.025-.062.008-.019.092.062.016-.038-.016-.08q.707-.36.927-.281.128-.063.341.03zm3.458 1.73.019.007q.11.07.094.108l-.027.012-.02-.009q-.089-.066-.074-.1zm-1.864-.665.018.076-.086.199-.043-.018.068-.157-.011-.078zm1.845 1.151.01.027-.007.02-.027.01-.024-.01-.011-.027.008-.019.027-.011zm.162.16.013.034-.008.02-.032.008-.019-.008-.011-.027.008-.02.03-.015zm-1.188-.417-.008.02.061.026.025-.057-.019-.008zm-4.064-1.681.057.024-.017.038-.057-.024zm4.964 2.165.026.057-.08.015-.011-.027.01-.024zm-5.069-2.092.011.027-.008.019q-.045.054-.145.01l.008-.018zm.06.189.142.061q.042.019.013.124l-.027.012-.019-.009-.005-.092-.123-.053zm5.367 2.34.037.134-.034.013-.019-.008q.019-.043-.038-.067l-.016-.03.008-.019zm-1.414-.56q-.035.08-.116.113l-.043.1.076.032.008-.019-.012-.078.087-.03.043-.1zm-2.588-.954-.016.038.061.026.017-.038zm-1.444-.579.019.008.138.11.08.035-.016.038-.065-.005-.175-.143zm1.255.638-.008.019.02.059.043.018.008-.019-.024-.06zm1.552.67.01.027-.01.023-.153-.02.008-.02q.018-.043.145-.01zm-2.486-1.023.011.027-.008.02-.027.01-.118-.05.016-.039zm4.952 2.206.012.027-.01.024-.028.01-.019-.008-.015-.029.01-.023.032-.01zm-.268-.043.015.03-.008.018-.06.024-.01-.032.008-.019zm-5.737-2.24q.085.065.07.098l-.007.019-.02-.008q-.105-.069-.089-.106l.028-.012zm1.972.896-.035.08.043.02.034-.081zm-1.498-.506.019.008.02.06-.055.02-.01-.026zm.52.32.01.027-.007.02-.03.015-.023-.01-.01-.032.009-.02.027-.01zm1.694.99.011.028-.01.024-.027.01-.057-.024.018-.043zm-2.205-.9.026.056-.06.02-.012-.074.027-.01zm1.244.559-.062.091-.016.038.054-.021.043-.1zm-1.848-.635.038.135-.032.009-.02-.009-.037-.134.032-.009zm5.5 2.515.01.027-.018.043-.019-.008-.019-.06.027-.01zm-5-2.085.077.033-.017.038-.075-.033zm4.64 2.098.042.019.178.24-.027.011-.027.062.014.073-.019.043-.038-.017q.017-.038-.091-.23l.054-.022q-.107-.13-.095-.16zm-4.881-2.084q-.017.038.04.063l.011.027-.01.023-.027.012-.02-.009q-.067-.063-.053-.096zm.45.313q.068.063.056.091l-.061.025q.018-.043-.038-.068l-.012-.027.008-.019.028-.01zm4.843 2.186.019.008.026.056-.008.02-.024-.01-.022-.055zm-.187.105.057.025.102.207-.056.026q.014-.033-.108-.142zm-3.917-.56-.035.08.042.02.035-.081zm2.644 1.215-.016.038.1.043.016-.038zm-2.488-1.03-.027.063.043.018.026-.062zm2.602 1.197-.054.073.038.016.035-.08zm-4.391-1.85.009.032-.008.019-.027.01-.024-.01-.011-.027.008-.019.029-.015zm1.603 1.306.022.054-.03.015-.018-.008-.02-.059.028-.011zm1.775.766.01.027-.007.019-.03.015-.023-.01-.01-.032.009-.019.027-.011zm7.427-3.268.033.025-.142.255-.092.086-.15.198.005.029-.013.016-.029.005-.016-.013-.004-.029-.017-.012.08-.07.174-.23-.037-.055q.083-.04.17-.156zm-1.233-.701.004.029-.05.066-.033-.025.034-.079.029-.004zm.39.58.033.025-.038.05q-.309.408-.441.65l-.133.108-.087.115-.076.202-.116.12.04.082.03-.004.016.012.09.12.442.102.03-.004.024-.033q-.066-.05-.003-.132l.087-.012-.012-.087.038-.05q.025-.032.074.005l.013-.016.005-.075.107-.074.017.013-.004-.03.012-.016.067-.053-.017-.013-.028.005-.017-.013-.004-.029.05-.066q.05.038.074.005l.038-.05-.008-.057-.062.082-.033-.025.087-.115.096-.161.108-.074-.004-.029.029-.004.016.012.004.03-.012.016-.146.123.017.013q-.052.213-.026.24l-.03.004-.012.016q-.025.033.041.083l.004.029-.012.016q-.025.033-.091-.017l-.076.202-.012.017-.017-.013-.004-.028-.016-.013-.038.05-.045.094-.004-.029-.017-.012-.166.185q.09.224.015.323l-.224.09-.058.11-.033-.024.025-.033-.017-.013-.037.05-.08.173-.058.007-.046.095-.05.066-.057.008V49.7l.108-.073.087-.116.042-.123-.016-.013-.598-.272-.091.087-.296.424-.087.012-.013.016-.104.206-.22.223-.675.992-.458.535q-.115.153.168.464.433.147.595-.067l.075-.099-.008-.058-.033-.025q-.105-.066-.136-.025l-.025.033-.005.074-.013.017-.016-.013q-.054-.04-.028-.202.076-.066.293-.011l.167-.186q-.037-.053.025-.136l.062.021.125-.165.1-.235.03-.004.016.012.008.058.012-.016q.142-.204.117-.223-.11-.128-.082-.165l.013-.017.033.025.004.029.016.012.025-.033.033.025q-.05.066 0 .104l.012-.017.005-.074.079-.07.137-.181-.066-.05.013-.017.029-.004.012-.016.004.029.033.024.025-.032.005-.075.083-.04.246-.36.033.026-.171.26-.075.098q-.138.31-.118.326l-.012.017-.17.052q-.161.248-.246.462l-.175.23-.033-.024.063-.082-.017-.013-.112.148-.03.108.03-.005.016.013.004.029-.013.016q-.025.033-.074-.004l.004.029-.013.016q-.119.02-.166.082l-.012.016.132.1q.185.167.072.315-.037-.028-.232.135l-.426.118-.072.23-.016-.012q-.033-.025.005-.074l-.029.004-.016-.012.07-.128-.611.055q-.513-.103-.714-.256-.127-.167-.14-.261-.087.115-.136.077l-.004-.028.107-.074q-.15-.212.252-.743l.234-.342.265-.214-.004-.029.013-.016.108-.074.237-.313q.34-.449.363-.581l.078-.07.175-.23.438-.68.058-.008.037-.05q-.086-.065-.184-.269l-.19.011q-.026.033.015.22l-.066-.05q-.144-.11-.09-.327l.013-.017q.16-.21.6-.038l.029-.004.07.078q.132-.055.206.001l.005-.074q.14.054.265-.11.76-.156 1.243-.51zm-.657-.16.004.029-.012.016-.058.008-.008-.058zm1.38 1.123-.097.368-.013.016-.029.004-.016-.012q.06-.318.11-.384l.028-.004zm-.66-.19.007.059-.012.016-.033-.025-.008-.058.029-.004zm.326.664.017.013-.013.016-.079.07-.033-.025.05-.066zm-2.595-1.708.008.058-.075-.005-.016-.012.025-.033zm1.255 1.081-.012.016.008.058.016.013.087-.012.025-.033-.017-.012zm-.24-.026-.025.033.07.079.08-.07.032.025-.025.033.066.05.025-.033q-.066-.05-.04-.083l-.05-.038-.116.017zm.078.137-.012.016.008.058.016.013.038-.05zm.942 1.05.004.03-.013.016-.029.004-.016-.012-.004-.03.012-.016.03-.004zm-1.29-.899-.025.033.05.037.025-.032zm-1.208-.63.008.058-.103-.001-.004-.029.012-.016zm1.897 1.671.033.025.008.058-.028.004-.037-.053zm-.087.219.004.029-.013.016-.029.005-.016-.013-.004-.029.012-.016.03-.005zm-2.057-1.325.004.029-.012.016-.029.004-.033-.025.013-.016zm1.494 1.417.004.029-.013.016-.029.005-.016-.013-.004-.029.012-.016.03-.004zm-.005.178.004.029q.074.14.053.17l-.03.004-.085-.195zm-1.652-1.174.004.028-.012.017-.058.007-.004-.028.012-.017zm2.227 1.818.004.028-.012.017-.03.004-.016-.012-.004-.03.013-.016.029-.004zm-2.586-1.858.032.025-.012.017-.116.12-.033-.026q.062-.082.03-.107l-.034-.025.025-.033.062.02.008.059zm.527.4.033.025-.038.05-.033-.026zm-.178-.108.008.058-.012.016-.033-.025-.008-.058.029-.004zm2.207 1.776.004.03-.075.098-.033-.025.059-.111.029-.005zm-2.088-1.557.004.03-.012.016-.03.004-.016-.012-.004-.03.013-.016.029-.004zm-.392-.167-.012.016-.087.012-.004-.029.012-.016zm2.471 1.873.066.05-.025.033-.066-.05zm-.528-.193-.038.153-.016-.013q-.041-.082.009-.148l.029-.005zm-1.907-1.42-.042.124q-.065.087-.124.062l-.017-.013.108-.074.03-.107.029-.004zm-.276-.183-.005.075-.058.007-.004-.029-.029.005-.012.016.004.03-.03.003-.016-.012-.004-.029.038-.05zm2.074 1.884.05.037-.025.033-.062-.02zm-2.15-1.578.017.012.008.058-.03.005-.016-.013-.004-.029zm1.862 1.41.004.03-.013.016-.058.008-.004-.03.013-.016zm-1.97-1.336-.005.074-.029.004-.016-.012-.008-.058zm.148.215.016.013.05.14-.03.005-.016-.012q-.05-.09-.033-.129zm2.195 1.69.004.03-.013.016-.029.004-.016-.013-.004-.029.013-.016.028-.004zm-.861-.575.066.05-.025.033-.066-.05zm.28.316.003.029-.012.016-.03.005-.016-.013-.004-.029.013-.016.029-.005zm-.178.644-.062.082.016.013.063-.083zm-1.543-.496q-.05.066-.15-.009l-.024.033q.074.056-.001.207l.016.012.03-.004.003.029.05.037.025-.033q-.1-.075-.024-.173l.108-.074zm-1.24-.862.004.029-.025.033-.017-.013-.008-.058.03-.004zm.93.86-.013.017.033.025.058-.008.013-.016-.033-.025zm.15.349-.037.049.033.025.038-.05zm1.047.844.033.025-.063.186-.058.007-.025.033-.005.075-.07.024-.034.079-.017-.013.004.029-.087.115-.087.012-.004-.029.029-.004.087-.115.059-.112.066-.053.092-.19zm-2.147-1.445-.021.165-.03.004-.016-.012.01-.15zm1.758 1.513.033.025-.013.017q-.062.082-.124.061l-.004-.029.012-.016zm-1.54-.57.009.058-.03.005-.049-.038.013-.016zm1.404 1.194.033.025-.075.099-.033-.025z" style="font-size:10.5833px;line-height:1.25;font-family:'Beyond Wonderland';-inkscape-font-specification:'Beyond Wonderland';white-space:pre;fill:bisque;fill-opacity:1" aria-label="About" transform="translate(-115.103 -41.676)"/></g></svg>