<svg width="88.074" height="40.082" viewBox="0 0 23.303 10.605" xmlns="http://www.w3.org/2000/svg"><g style="fill:bisque;fill-opacity:1"><path d="M38.648 47.424q.097.005.321-.087l.02-.008.041-.062.479-.195.073.014.022-.053.038-.016.054.022.088-.058.065-.004.07-.05.378-.111.172-.07.016.038-.02.007-.756.332-.054-.022-.02.007-.033.081.095-.039.016.038-.096.04q-.038.015-.062-.042l-.057.023-.08.078.016.038.302-.08.016.04-.02.007-.283.071.083.257.038-.016q-.023-.057.034-.081l-.023-.057q-.058.023-.073-.015l.011-.027.02-.008.08.034.024.058q-.07.157-.045.219.058-.024.089.053l.004.065.02-.008.053.023.008.02q.016.037-.06.069l.062.153q.368.134.48.407.134.33-.018.722l-.02.007.063.153.148.252-.011.027-.02.008-.053-.023.016.038.09.165v.111q.056.027.124.195l.02-.008-.032-.076.039-.016.015.038q.077-.03.147.141.188-.032.204.006l-.023.054-.115.047-.027-.011-.019.007-.007.092.027.012q-.033.013-.018.119.186.18.229.286l.086.21q.096-.039.111 0l.05.068-.01.027-.02.008q-.045-.07-.135-.057l.016.038.1.138-.01.027-.058.023-.031-.076-.02.007.116.445.047.114.065-.004-.024-.057.039-.016.023.057q.016.039-.06.07l.007.02.062.04.094.23.02.104.054.023.007.019q.016.038-.041.061l.18.44-.027-.01-.02.007.005.065q.038-.016.185.125l.008.02-.038.015.078.191q.058-.023.127.037l.001.112-.038.015-.047-.114-.02.007.18.44.062.042.055.134q.077-.032.092.007l-.06.07q.08.168.127.148l.05-.043.027.012.008.019-.011.027-.115.047.07.172.012.084.187.348.037.253q.115-.047.154.049l.008.019.038-.016.042-.061.042.05-.183.097.14.121-.012.027-.02.008-.172-.04-.023.053-.077-.08.019-.007.065-.005-.016-.038-.122.028q-.063.12-.206.262-.153.007-.173-.04l-.041.061-.054-.022-.008-.02.011-.026-.008-.02.223-.001.038-.016.046-.108-.161.044-.016-.039.183-.097.027.011.014-.184.027.011-.008-.019-.042-.05q.015-.073-.025-.168l.039-.016.078.192.02-.008-.158-.494.038-.015.031.076.02-.007-.032-.077-.159-.225-.036-.142-.027-.011-.038.015.176.375.015.038-.038.016-.21-.405q.043-.018-.05-.338l.012-.027-.015-.038q-.058.024-.073-.015l.01-.027.02-.007.027.011-.008-.019-.09-.164q.039-.016.015-.073l-.007-.02-.02.008q.032.076-.026.1l-.08-.034.01-.027-.007-.02-.027-.01.05-.043-.008-.02-.062-.04-.012-.085q-.082.033-.146-.03l.01-.027q.09-.002.1.026l.012-.027.02-.007.026.011.02-.007-.047-.115q-.048.02-.09-.053l-.024-.169-.023-.057-.093-.118.011-.027.02-.008.042.05.02-.008-.037-.142q-.038.016-.077-.08l-.038.016-.016-.038q.058-.024.026-.1l-.092-.007.011-.027-.007-.02-.059-.087.023-.054-.05-.069-.01-.13-.01.027-.02.007q-.023-.057-.08-.034l-.028-.011-.008-.02-.09-.275.02-.007.026.01q.069-.05.022-.164l.019-.008-.093-.118q-.102-.249-.025-.28l.038-.016-.008-.019q-.016-.038-.092-.007l-.043-.05.02-.007.065-.004-.008-.02-.058-.087-.088.058-.027-.011-.008-.02.011-.026-.007-.02-.05-.068-.009-.02.058-.023.027.011.019-.007-.008-.02-.05-.068.01-.027.02-.007-.027-.012-.008-.019.012-.027-.008-.02-.02.008-.049.043-.027-.011.011-.027-.007-.02q-.084-.122-.132-.102l-.11-.268-.133-.436-.02.007-.041.062-.02.007q-.033.014-.178-.217l.022-.165-.057.023-.165.09q-.21.047-.953-.146-1.013-.144-1.726.148l-.172.07-.024-.057-.114.047.023.058q-.46.187-.945.855-.162.424-.091 1.087-.05.138.046.495-.018.147.054.514l-.023.054.13.371.2.433q.071-.03.332.377l.63.613q.567.634.998.798.828.264 1.263.086.016.038.15-.016l.21-.086.605-.27.054.022q.34-.139.541-.422-.023-.058.092-.105-.028-.067.117-.204.029-.38.143-.796l.06-.292.018-.007q.153.373-.003 1.028-.265.622-.7.8-.016.069-.695.375l-.44.18q-.378.154-1.412.153-.251.013-.788-.124-.182-.104-.273-.067-.057.023-.2-.052l-.004-.066-.02.008-.13-.103-.02.008-.05.042q-.718-.61-.808-.83l-.533-1.3-.05-.07q-.055-.53.018-.61l-.043-.05.02-.007q.057-.024.018-.12l-.02.008-.041.062-.02.008q-.162-.85.086-1.375.235-.543.302-.57.048-.02.236-.298.26-.347.464-.503l.218-.178.019-.008q1.305-.534 1.766-.432l1.229.055.195-.013.077-.031.136-.212-.058-.088-.011.027-.039.015-.039-.095.012-.027-.027-.012-.024-.057.011-.027-.027-.011-.023-.058.023-.054.061.042.079.191.019-.007-.012-.084.092.007-.063-.153q-.04-.1-.174-.153l-.011.027q-.094-.162-.32-.07l-.057.024-.079.188q.055.134.189.08l.016.038-.02.007q-.148.06-.238-.036l-.031-.077q-.076-.186.12-.362l.038-.015q.12-.05.253-.037l.02-.008-.008-.019-.039.016-.031-.077-.024-.168-.054-.023-.06-.199q-.1.041-.138-.01l.011-.027.112-.001-.063-.153.038-.016-.015-.038q-.058.023-.12-.018l-.187.032-.191.078-.12-.018q-.06.07-.194.125l-.192.078-.015-.038.248-.102zm-6.232 2.617.065-.004.015.038-.038.016-.054-.023zm6.799-2.76.007.019.134-.055-.007-.019zm.895-.322.027.011.008.02-.011.026-.077.032-.016-.039zm-.868.445.008.019-.034.08-.027-.01-.007-.02zm-6.446 2.75.077-.032.016.038q-.039.016-.065.116l-.057.024.008.019q.057-.024.073.015l-.122.139-.076.031q-.06-.02-.338.049l-.011.027-.115.047-.008-.02.034-.08.077-.032.374-.176.054.023q-.031-.076.08-.189zm.16.336.081.034-.01.027-.02.007-.027-.01zm6.624-2.644.008.02.054.022-.024-.058zm.471-.103.039-.016.086.21-.023.054-.027-.011.011-.027zm-7.56 3.138.027.012.008.019-.011.027.008.02.027.01-.012.027-.019.008-.027-.011-.023-.058zm1.088-.288.065-.005.016.038-.038.016-.054-.023zm1.833-.706.038-.016.008.02-.022.053-.039.016-.007-.02zm1.268-.34.016.038.057-.024-.016-.038zm2.98-1.176.04-.015.05.068-.012.027-.019.008-.027-.011zm-4.578 1.964.21-.086.016.038-.21.086zm-2.046.949q.144-.031.157.003l.008.019-.023.054q-.021-.053-.146-.03l-.007-.02zm.326-.022.038-.015.047.114-.034.081-.027-.011-.007-.02q.02-.058-.017-.149zm3.087-.861.18.06-.01.027-.058.023-.135-.056zm3.487-1.249q.016.039-.061.07l.016.038.103-.02-.023-.058.019-.007.027.011.019-.007-.008-.02-.054-.022zm.471-.103.054.022-.06.07-.028-.012-.008-.019zm-5.658 2.383.027.01.008.02-.012.027-.019.008-.027-.012-.007-.019.01-.027zm5.426-2.132.075.237.038-.015-.094-.23zm-.091.104.062.153-.007.093.078.08.019-.008-.071-.283-.043-.05zm-6.96 2.916.116.064-.022.054-.108-.045-.008-.02zm7.5-2.578.027.011.008.02-.042.06-.027-.01-.008-.02zm-.103.131.038-.016.04.096-.023.054-.027-.011-.008-.02zm.112 0 .026.01.008.02-.011.027-.02.007-.026-.011-.008-.02.011-.026zm-3.286 1.411.146.03.023.057-.02.008-.172-.041zm2.99-1.045.018-.007.081.034q.032.187-.006.203l-.027-.011-.008-.02.007-.092-.027-.01zm.302-.079.031.077.02-.008-.032-.076zm-3.44 1.475.02-.008.08.034-.194.124-.027-.01-.008-.02zm3.825-1.298.027.012.008.019-.023.054-.038.015-.008-.019zm-.795.46.062.041.008.02-.023.054-.077-.08.011-.027zm.41.457.028.011.023.058-.034.08-.027-.01-.007-.02q-.016-.105.018-.119zm-5.903 2.439.027.011.008.02-.015.072.02-.007.01-.027.02-.008.027.012.008.019-.023.054q.058-.024.073.014l-.011.027-.181-.06q-.057.024-.073-.014l.011-.027.027.011.02-.007zm6.012-2.394.057-.023.016.038-.058.024zm-.767.582.054.023-.012.027-.019.007-.054-.022.012-.027zm-4.904 2.208.058-.023.015.038-.057.023zm6.054-2.344.031.077.02-.008-.032-.076zm-4.793 2.096.016.038.057-.023-.015-.039zm-1.454.595.027.011.008.02q-.022.165-.06.18l-.02.008-.053-.023-.016-.038q-.013-.033.114-.158zm6.433-2.454.032.076.019-.007-.032-.077zm-5.073 2.12.024.058.038-.015-.023-.058zm5.086-1.925.04.096.019-.007-.04-.096zm-1.655.812q.017.043.203.006l.008.02-.011.026q-.203.05-.223.002zm.213.248.027.011.008.02-.012.026-.019.008-.027-.011-.008-.02.012-.027zm-4.472 1.897.054.023-.034.08-.089-.052.011-.027zm5.407-2.123.057-.024.016.038-.058.024zm-4.235 1.822.043.05.057-.024-.024-.057-.038.016-.027-.012zm4.813-1.992.027.011.008.02-.023.053-.027-.011-.008-.02zm.357.435.039.095.019-.007-.04-.096zm.763-.045.038-.015q.016.038.073.014l.016.039-.057.023-.054-.022zm-1.15.627.015.039.058-.024-.016-.038zm.43-.041.026.011.008.02-.011.026-.02.008-.026-.012-.008-.019.011-.027zm.436-.134.038-.016.024.057-.023.054-.027-.011-.008-.02zm-.511.388.073.014.107-.066.019-.007.015.038-.194.124-.027-.011-.016-.038zm.906.03.166.134-.012.027q-.052.021-.177-.106zm1.465-.13.038-.016.032.077-.039.016zm-4.124 1.71.054.023.015.038-.022.054-.054-.022-.016-.039zm1.799-.624.027.01.015.04-.019.007-.054-.023.012-.027zm1.377-.564.027.011.008.02-.011.026-.02.008-.027-.011-.007-.02.011-.026zm-4.231 1.776.027.012.008.019-.195.124-.016-.038zm.333-.114.207-.04.011-.027-.008-.019q.1-.002.127.038l-.099.085.012-.027-.008-.02q-.21.087-.234.03zm2.697-1.104.054.023-.011.027-.038.016-.054-.023.011-.027zm3.08-1.26.02-.008.13-.009.016.039-.077.031zm-1.886.794.077-.031.015.038-.057.023q.034.042.135.057l.057-.024q.048-.086.11-.112l.043.05.096-.04.092.008.011-.027.104-.02.21-.087-.004-.065.168-.025.536-.22.008.02-.011.027.007.02.02-.008.24-.121.513-.166.096-.039.069-.05q.092.007.226-.048l.134-.055.069-.05q.097.005.321-.087l.058-.024.015.039-.459.187-.868.334-.023.054-.038.015q-.804.33-.827.272l-.012.027-.019.007-.18.051-.042.062-.095.04-.054-.023.096-.04-.008-.019-.077.032-.011.027-.103.02-.23.094.004.065q-.19.079-.34.206l-.157-.002.016.038-.096.04q-.038.015-.07-.062l-.038.016-.008-.02.023-.053q.038-.016.062.042l.041-.062.142-.036-.023-.057.019-.008.027.012.145-.082q-.016-.038-.092-.007l-.027-.011-.008-.02.011-.027-.054-.022-.007-.02zm-4.679 1.938.058-.024.015.038-.057.024zm.49-.112.039-.016.031.077-.038.016zm3.165-1.273.054.023.008.019-.039.016-.054-.023.012-.027zm-2.747 1.147.027.011.008.02-.012.026-.076.032-.016-.039zm1.863-.74.027.01.008.02-.011.027-.02.008-.026-.012-.008-.019.011-.027zm3.372-1.313.007.019.115-.047-.008-.02zm.348-.076.008.02.172-.071-.007-.02zm-1.17.524.096-.04.015.039-.095.039zm1.382-.499.027.011.007.02-.01.027-.02.007-.027-.011-.008-.02.012-.026zm-1.365.648.076-.031.016.038-.077.032zm-.99.584.027.011.008.02-.012.026-.019.008-.027-.011-.007-.02.01-.027zm-3.03 1.33.104-.021.23-.094.015.038-.306.125-.054-.022zm4.533-7.8.022.02.001.02-.02.023-.02.001-.022-.02-.001-.02.02-.022zm.594.21.022.018.001.021-.059.045-.041.003-.002-.02q-.002-.032.079-.068zm1.115-.056.041-.002.003.041-.184.033-.003-.041zm-2.656.553.022.02.001.02-.019.022-.041.002-.002-.02zm1.691-.114q.004.051.21.048l-.004-.062.145-.01.064.037.083-.005.205-.035.047.08.02-.002q.078-.005.18-.095l.432-.05q.54.021.556.253.012.175-.253.245l.075-.109q-.025-.076-.152-.114-.324.115-.301.456l.049.722q.025.366-.052.77l.014.206.155.756.025.371q.083.533.346.515.216-.014.327-.374l-.003-.041-.088-.077q-.122.034-.117.111l-.041.003-.002-.02q.05-.19.256-.205.206-.013.217.151l.004.062q.015.217-.33.644l.022-.001.019-.023.02-.001.022.02.002.02q-.062.004-.06.045l-.021-.02-.021.003-.099.068.022.02.001.02q-.082.006-.08.047l.002.02.084.016.037-.065-.022-.02-.003-.04.044.038.003.041-.015.084.026.081.001.02-.038.045-.105-.014.022.02.002.02-.02.002.021.019.007.103-.02.002q-.006-.083-.047-.08l.019-.022-.003-.041-.022-.02-.001-.02-.1.048-.002-.02.014-.105.041-.002-.02.022.002.02.02-.001.082-.026.044.038.02-.002-.112-.137q-.121.055-.117.111l-.022-.019-.02.002-.058.066v.02l-.021-.019-.02.022-.144.01-.01-.165-.022.001-.015.084.022.02.003.04-.01.147.02-.002.02-.022.02-.002.026.081-.016.064.061-.004.002.02-.062.004.003.042.04-.003.002.02-.041.003.018.268.022.02.001.02-.019.022.02-.001.02-.023.02-.001.003.041-.062.004.064.327-.015.084q.06.058.128.054l.003.04-.042.003.002.02.062-.003.019-.022.001.02-.038.045-.022-.02-.02.002-.02.022-.001-.02-.06.024q.085.119.131.116l.004.061-.02.002-.132-.115v.02l.053.162-.041.003.011.165.022.019.001.02-.019.023-.041.002-.06-.265.042-.003-.032-.163.01-.167-.002-.02-.022-.02.028-.209-.044-.038.02-.002-.022-.019.011-.146-.03-.143-.021.002.003.041-.042.003-.006-.104.04-.003.04-.044-.004-.041-.044-.039-.02.002.003.041-.042.003-.048-.1-.006-.083.02-.022-.002-.02-.064-.038q.014.206-.048.21l-.02.002.014-.084q-.016-.242-.208-.317-.082.005-.249-.315l.02-.001q-.064-.265-.162-.259l-.003-.041.022.02.042-.003-.001-.02q-.114-.154-.122-.262l-.019.022-.084-.015-.001-.02.041-.003-.004-.062-.022-.019.02-.022-.004-.041-.019.022-.02.002q-.003-.042-.065-.037l-.001-.021.038-.044.044.038.02-.001v-.02l-.046-.06.041-.002-.001-.02-.022-.02-.001-.02.016-.064-.001-.02-.02.001.002.041-.087-.056-.04.002-.326.395q.011.17.118.22l-.081.026.03.143.013.186-.037.065q.047.307.165.3l.003.04-.02.002-.105-.014.005.083-.082.006-.004-.062-.08-.264.064.037-.067-.39.015-.083-.009-.124-.027-.102q-.431.6-.676.73-.461.3-.683.315l-.041.003q-.464.03-.775-.735l-.11-.387.034-.126-.014-.206-.055-.204q-.032-.469.217-1.071l-.014-.206q.12-.138.12-.36.208-.538.983-1.103l.104.014.021-.002q.107-.183.356-.252l.08-.047.084.015zm-2.572.256.045.06-.02.022-.02.001-.045-.059.02-.022zm1.925-.026.002.041.227-.015.058-.066-.001-.02zm-1.375.196.066.058-.02.022-.02.002-.066-.058.02-.022zm2.23-.109q-.423.029-.911.31-.308.28-.625.871l-.06.025.028.122q-.096.416-.07.792l.004.062-.072.17.036.226.004.062q.184.345.613.477l.103-.007q.222-.015.612-.145-.004-.047-.15-.073l-.003-.041.122-.03-.001-.02-.103.007.115-.132-.124.008v-.02l.018-.023-.001-.02-.062.004.017-.063.02-.002q.041-.002.047.08.073-.068.14-.072l-.073-.16.02-.002.023.019.02-.002q-.01-.144.032-.147l.022.02.038-.045.022.02.002.02-.08.047.01.144q.083.005.086.057l.002.02-.083.006.006.082q.01.165.114.158l-.001-.02-.049-.1.042-.003-.002-.02-.022-.02v-.02l.018-.022.02-.002.029.102-.042.002.044.038-.019.023.003.04.058-.065.02-.002-.022-.02-.003-.04.039-.044.064.037q-.004-.062.037-.065l-.022-.02.017-.063.065.038.04-.003q.046-.257.025-.56l-.03-.144.063-.294-.003-.041q-.101-.273-.116-.49.054-.112.048-.21l-.003-.041-.06-.286-.001-.311q-.041.002-.055-.204l-.02.022zm-2.457.435.022.02.002.02-.039.044-.022-.019-.001-.02zm1.528.54.022.019.002.02-.02.022-.02.002-.022-.02-.001-.02.019-.022zm.867-.06.044.04v.02l-.04.002-.044-.038.019-.022zm.517-.013.002.04.062-.003-.003-.041zm.07.12.001.02.066.058.041-.003v-.02l-.067-.058zm-2.328.198.004.062.123-.03-.003-.04zm1.198-.06.022.019.001.02-.02.023-.02.001-.022-.019-.001-.02.02-.023zm1.22-.02.005.061.041-.002-.004-.062zm.764-.052.066.057-.02.023-.02.001-.066-.058.02-.022zm-1.478.203.022.02.005.082-.038.044q-.041.002-.045-.059zm-.658.376.046.08-.019.022-.02.002-.046-.06zm.413-.007.022.02.003.04-.02.002-.044-.038.019-.022zm.19.05.044.038-.019.022-.02.001-.045-.038.02-.022zm1.696-.053.022.019v.02l-.018.023-.042.002-.001-.02zm-2.1.204.085.036-.002-.042q.036-.002.071.14l-.041.003-.003-.042-.044-.038-.062.004.003.041-.02.002-.005-.062.02-.022zm-.12.07.062-.004.003.041-.062.004zm.336.06.044.039.001.02-.04.003zm1.64.035.021.019.001.02-.019.022-.02.002-.022-.02-.002-.02.02-.022zm-3.77.317q.006.103-.035.105l.004.062.041-.002q-.002-.041.06-.045l.013-.105-.001-.02zm2.514-.191.022.02.001.02-.019.022-.041.002-.002-.02zm-.182.074.022.02.002.02-.02.022-.02.002-.022-.02-.001-.02.019-.022zm-.45.093.023.02.001.02-.019.022-.02.001-.023-.019v-.02l.018-.023zm-.14.071.042-.002q.006.083.047.08l.001.02q-.082.006-.08.047l.003.041.022.02.002.02-.042.003-.025-.06q.038-.066.03-.169zm2.682-.18.022.018.001.021-.02.022-.04.002-.002-.02zm-2.314.404.003.042.063.016-.005-.083zm-.579.019.125.012.003.041-.102.028-.022-.02zm.271.023.02-.002.023.02.019-.023.041-.002-.015.084-.041.002-.003-.041-.02.002v.02l.026.06-.062.004-.002-.02zm1.98-.134.022.02.001.02-.019.022-.02.001-.023-.019v-.02l.018-.023zm-2.262.256.022.02.004.061-.02.002-.044-.038zm.317.083.082-.006.006.082-.058.066-.02.002.015-.084zm.356.058.02-.001.039-.044-.001-.02zm-.392.027.001.02-.038.044-.022-.019-.001-.02.019-.022zm-1.577.272.004.062.086.036.04-.003.016-.083-.022-.02zm2.345.049.002.041-.06.025-.003-.041zm.137.198.062-.004-.038.044-.022-.02zm-.059.045.041-.002.003.041-.08.026-.002-.02zm-.203.055.02-.001.064.016.004.062-.083.006-.001-.02.02-.023-.002-.02zm.29.001.02-.001-.038.044-.02.002zm.064.037.042-.002-.032.147.027.081-.02.022-.02.002-.003-.041q-.062.004-.065-.037l-.062.004q.003.041-.08.047l.003.04.02-.021.02-.002.022.02.02-.002-.002-.041.062-.004q.002.036-.117.111l-.045-.059-.004-.062.062-.004q-.003-.041-.106-.034l-.025-.06.041-.003.003.042.02-.022.02-.002.022.02.019-.023.02-.001.065.037.02-.022-.002-.021-.044-.039.02-.001.023.02q.08-.027.077-.089zm-.39.048.02-.002.045.039.001.02-.103.007-.001-.02zm-1.786.245.003.041.02-.002.123-.028.063.016-.007-.103zm1.834-.145.002.02-.039.045-.001-.021zm2.868-.173.103-.007.002.02q-.042.003-.037.065l-.021.002-.044-.039.02-.022zm-4.739.382.028.102.041-.002.038-.044-.002-.042zm4.93-.333.04-.002.005.062-.045-.039zm-3.277.263.004.062.038-.044-.001-.02zm.163-.032.042-.002.001.02-.038.045-.042.002-.001-.02zm.373-.004.02-.002.003.042-.062.004zm-.9.164.063.017q-.035.095-.076.108l-.02.002.037-.065-.025-.06zm.929-.042.041-.002.044.038.004.062-.06.025-.022-.02-.001-.02.038-.044zm-1.956.174.004.062.02-.002.039-.044-.002-.02zm2.433-.165.003.042.022.019-.055.107.004.062.125.012.014-.104-.066-.058.02-.022-.002-.02-.044-.039zm-.742.05.044.04-.02.021-.04.002-.045-.038.02-.022zm-.634.126.02-.001.003.041-.062.004zm.144-.01.006.083-.02.002-.023-.02-.02.002-.039.044-.022-.019-.003-.041.06-.025.023.02zm-.203.056.022.02.003.04-.02.002-.023-.02-.02.002-.061.025-.003-.041zm2.479-.105.062-.004-.039.044-.022-.02zm.103-.008.004.062-.041.003-.002-.021zm-.921.166.004.062.103-.007-.066-.058-.02.022zm.906-.082.022.02.004.061-.06.025-.005-.062zm.6-.02.02-.001.044.038-.02.022-.04.003zm-2.37.202.002.02-.039.045-.02.001-.003-.041zm.682-.025.022.019.002.02-.02.022-.02.002-.022-.02-.001-.02.019-.022zm-.906.082.042-.003-.014.105.044.038-.038.044-.021.002-.044-.039.02-.022-.002-.02-.022-.02q.041-.002.036-.085zm.394-.006.022.019.005.082-.02.002-.044-.038-.002-.021zm1.608-.109.042-.002.005.082-.038.044-.02.002-.002-.02.037-.065-.022-.02zm-1.442.118.041-.002.064.016.002.042-.019.022.001.02q.042-.002.047.08.083-.006.086.036l-.02.022.022.019-.06.025-.072-.14-.001-.021-.102.028-.003-.042.037-.064-.022-.02zm1.363-.071.02-.002.006.083-.083.005-.003-.041q.062-.004.06-.045zm-1.175.1.004.062-.02.001-.044-.038.02-.022zm-.885.08.041-.002.006.083-.041.002zm.99-.066.062-.004.003.041-.062.004zm1.588-.108.02-.001.05.12-.02.023-.04.002-.027-.081zm-2.144.166.064.016.004.062-.02.002-.067-.058zm1.176-.08.022.02.003.04-.02.002-.045-.038.02-.022zm-.245.058.006.083.02-.002-.005-.082zm-.783.053.04-.002.002.02-.038.045zm1.464-.099.022.02.003.04-.02.002-.045-.038.02-.022zm.106.035.02-.002.002.02-.039.044-.041.004-.001-.02q-.003-.042.059-.046zm-.39.067.021-.001-.013.104-.042.002.02-.022-.022-.019-.002-.02zm-1.11.117.02-.002.006.083-.062.004-.003-.042zm-.575.08.048.1-.019.022-.02.002-.044-.039-.003-.04zm1.836-.124.02-.002q.071.058.128.054l.003.041-.062.004zm.25.024.022.02.001.02-.019.022-.041.003-.002-.021zm.227-.015.001.02-.015.084.022.02-.041.002-.006-.082zm-2.885.236.042-.002.004.062-.042.002zm2.207-.149.02-.001.002.02q-.062.004-.06.046l.002.02.02-.022.02-.001.044.038-.039.044-.002-.041-.02.002.002.04.022.02-.041.002-.07-.099-.002-.04zm.165-.01.003.04-.083.006-.001-.02zm.393-.007.026.081-.016.064-.02.001-.045-.038.02-.002-.021-.02-.001-.02zm-.37.046.042-.002.008.123-.041.003zm.682-.026-.016.064-.044-.039.02-.022zm-.1.049.02-.002.005.062-.062.004-.001-.02zm-2.244.214.02-.002.064.016.001.021-.038.044-.045-.059zm.825-.056.006.082-.042.003-.002-.042zm1.506-.102.07.12-.041.002-.003-.041-.02.001-.058.066.026.081-.13-.074-.002-.041.02-.002.063.017.02-.022-.002-.02-.022-.02v-.02zm.206-.014.041-.003.001.02-.016.064.041-.003-.003-.04.021-.003.106.035.001.02-.038.044-.022-.019-.02.022-.082.006-.028-.102zm.33-.022.041-.002.003.04q.003.042-.06.046l-.02.002-.001-.02q.062-.005.06-.046zm-2.205.17.02-.002.025.06-.041.003zm1.237-.084.062-.004-.039.044-.02.002zm-.243.079.02-.002.026.081-.04.002zm.804-.055.041-.002q.004.062.046.059l.001.02-.038.045-.021.001.02-.022-.002-.02-.044-.039zm-1.545.125.04-.002.002.02-.016.064-.02.001zm1.856-.125.041-.002.001.02-.016.063.041-.002.003.041-.02.002-.023-.02-.02.002.003.042-.044-.039zm-2.68.202.041-.004.025.06-.02.023-.02.002zm1.467-.058.041-.002.044.038-.019.022.002.02.022.02-.021.002q-.046.003-.069-.1zm.454-.03.004.061-.041.002-.002-.02zm-1.772.14.022.019.041-.002.02-.022.02-.002.022.02.001.02-.02.022-.061.004-.022-.02-.02.002-.02.022-.022-.019-.001-.02.041-.003zm.7-.048.042-.002.006.083-.039.044-.022-.02zm-.036.065.001.02-.02.023-.02.001-.022-.019-.02.002-.02.022-.004-.062.042-.002.019-.022zm1.298-.108.082-.006.003.041-.041.003zm.37-.025.064.016.003.041-.143.03-.022-.019-.003-.04.02-.003.064.017-.001-.02zm-2.265.194.003.041-.083.006v-.02zm.392-.026.041-.003-.013.105-.021.001zm2.537-.172.04-.002.005.062-.044-.039zm-2.346.242.02-.002-.057.066-.001-.02zm-.202.075.041-.002.044.039-.082.005zm.33-.022.006.083-.062.004-.002-.021zm.455-.01.003.041-.039.044-.02.002-.004-.062zm-.597.061.045.039-.02.022.022.019-.041.002zm1.92-.109.082-.006.002.021-.039.044-.044-.038zm-1.338.132.02-.002.045.039-.02.022-.02.001-.022-.019zm1.67-.113.021-.002.066.058-.019.022.044.039-.038.044q-.004-.052-.07-.1l.02-.021-.001-.02zm-1.83.186.025.081.021-.002-.006-.082zm.577-.04.022.02.001.02-.062.005zm-.142.052.02-.002.004.042-.042.002.002.02q.002.042.085.036l-.039.044-.062.004-.027-.102zm1.65-.112.062-.004-.038.044-.023-.019zm.124-.008.02-.001-.052.148-.041.003-.001-.02q.038-.128.074-.13zm-1.979.155.042-.002.005.082-.041.002zm.062-.004.042-.002.005.082-.02.002zm1.342-.07.062-.004.003.041-.062.004zM46 55.48l.005.083-.041.002-.003-.041zm2.619-.177.02-.001.044.038-.019.022-.02.002-.022-.02zm-2.614.26.125.012-.057.066zm.805-.054.061-.004.044.038-.103.007zm.19.049.04-.002-.013.104-.041.002-.044-.038zm1.051-.071q.003.041.065.037l.001.02-.081.027-.044-.039-.001-.02zm.622 0 .044.038.001.02-.041.003zm-2.288.175.003.04-.102.028-.003-.04zm.062-.004.001.02-.038.044-.021.002zm.37-.025.022-.002.044.038-.02.022-.02.002-.022-.02zm.475-.032.02-.002.004.041-.062.004zm-.468.114.022.02-.057.086-.022-.02-.001-.02zm.494-.033.005.062-.082.026-.022-.02-.002-.04.02-.002.022.019.02-.002zm-.41.069.021-.002.044.039-.02.001zm-.654.127.021-.002.006.083-.021.001zm.77.03.123-.007.044.038-.02.022-.02.002-.126-.033zm-.412.05.02-.002.025.06-.04.003zm1.467-.058.062-.004.003.041-.063-.016zm.003.041.147.032.001.02-.08.047.023.02.002.04-.04.003-.027-.081.02-.022-.045-.039zm.868-.038.004.062-.021.002-.044-.039.02-.022zm-.674.15.062-.004-.039.044-.02.001zm.011.165.02-.002.045.038-.02.002zm-1.108.157.041-.002.004.062.021-.002.02-.022.02-.001.022.019-.017.063q-.095-.035-.108-.075zm-.029.189.062-.004-.038.044-.02.001zm-.018.042.021-.001q.007.103.069.099l.003.041-.062.004-.028-.102zm.126.013.02-.002-.016.063-.042.003v-.021zm-.403.172.02-.002.044.039-.019.022-.02.001-.022-.019zm.847-.037.02-.001.022.02.021-.003.02-.022.021.02.002.02-.104.007zm.687.058.042-.003.004.062-.02.002zm.287.25.02-.002.044.038.002.021-.021.002-.063-.017.002.041-.04.003-.002-.02zm.165-.012q.008.124.07.12l-.017.063q-.04.002-.045-.059l-.02.002.002.04-.041.003-.001-.02.037-.065-.046-.06zm-.345.107.061-.004-.038.044-.02.001zm.024.06.021-.002.065.037-.02.023.002.02.022.02.001.02-.041.002-.047-.08zm.105.014.02-.002.045.039-.021.001zm.128.053.003.041-.06.025-.023-.019-.001-.02zm3.836-8.048.017.023-.004.02-.023.018-.02-.004-.018-.023.004-.02.024-.018zm-1.509.543-.015.087.02.003.099-.051.081.014q.399.336.353.6l-.05.296q-.028.163-.323.506-.022.132-.354.416-.255.234-.485.195l-.053.038q-.307-.105-.272-.31l.017-.101q.08-.186.14-.175l-.004.025-.062.116-.008.045q-.019.112.073.186l.026.005q.229.04.454-.51l.018-.101q-.004-.436-.203-.47l-.127-.022q-.123-.021-.397.173l-.053.31-.099.33-.003.02-.161.817.07.206-.022.127q-.041-.007-.052.054l-.072.056-.01.061.068-.03-.004.02-.024.017.017.024-.003.02-.024.017.028.2q-.083-.005-.096.072l-.003.02.02.004.007-.041.02.003.034.048-.029.168-.047.034.005.09-.038.098.016.03-.003.02-.024.017-.003.02.016.024-.003.02-.087.138.002.11-.023.017.067.095-.024.017-.02-.003-.034-.048-.007.041.04.007-.003.02-.035.083.007.085-.145.107.017.024-.024.017-.025-.005-.017-.024q-.007.04-.13.02-.014.086-.08.075l-.095-.058-.09.13.016.025q-.199.15-.343.135-.201.165-.212.226l-.045-.008.036-.214q.057-.331.134-.38l-.006-.09.053-.186-.056-.072.136-.67.028-.167.012-.192q.066-.11.147-.583l.007-.04.014-.234.044-.103-.003-.258.044-.254-.017-.024.03-.058q-.032-.33-.236-.365l-.066-.012q-.178-.03-.306.163-.008.109.104.128l.046.008q.04.007.18-.163l.02.003-.125.214.024-.016.168.028.103.04-.007.04-.02-.004-.292-.07q-.142.064-.203.054l-.02-.004q-.082-.014-.171-.139l-.093.052-.099-.064.007-.04.11-.003.017.024.062.01.01-.06q.06-.347.437-.534.342-.371.664-.599.138-.04.35-.024l.218-.136.04.007q.245.042.251.431.66-.579 1.058-.51zm-3.384-.538.022.03-.004.02-.029.016-.02-.003-.017-.024.003-.02.025-.022zm1.53 1.17.02.003q.097.016.166-.077l.003-.02-.046-.008-.136.06zm1.328.295.04.049-.054.033-.03-.068.024-.017zm1.626.363.062.01-.008.046-.061-.01zm-1.799-.24-.003.02-.048.034-.017-.024.004-.02.024-.017zm-1.161-.137-.004.02.02.004.065-.01.004-.02-.02-.004zm-1.47-.23.016.023-.003.02-.025.023-.02-.004-.016-.029.003-.02.024-.017zm2.724.466.02.004.034.048-.024.022-.02-.004-.017-.029zm2.1.47-.003.02-.047.035-.017-.024.003-.02.024-.017zm-2.17-.309.018.024-.004.02-.024.018-.02-.004-.017-.024.004-.02.023-.017zm2.22.423.032.053-.097.046-.016-.024.003-.02zM52 51.84l.022.025-.003.02-.03.016-.02-.003-.017-.024.004-.02.024-.017zm.04.285.026.094-.024.016-.02-.003-.03-.068zm-3.598-.57.017.024-.004.02-.024.018-.04-.007.003-.02zm2.463.527.06.01-.006.042-.061-.01zm-3.876-.45q.075.05.07.081l-.004.02-.02-.003q-.076-.044-.071-.075zm3.765.82-.004.025-.048.034-.017-.024.004-.02.025-.023zm.897.18.022.024-.01.061-.053.033-.017-.024.004-.02.024-.017.003-.02-.017-.024.024-.017zm-2.506-.367-.003.02.034.048.02.003.01-.06zm1.863.36.04.008.034.048-.024.016-.057-.03zm-4.126-.617.017.024-.003.02-.024.017-.02-.003-.022-.025.003-.02.029-.016zm3.35.616-.004.02-.052.033-.034-.047.024-.017zm1.006.43.017.023-.004.026-.073.03-.02-.004.003-.02zm-3.043-.412.066.011.034.048-.024.017-.02-.004-.063-.031zm2.685.481.017.024-.003.02-.024.017-.026-.004-.017-.024.004-.02.024-.018zm.754.13.02.003.034.047-.003.02-.02-.003-.034-.047zm-4.012-.515.017.024-.007.04-.02-.003-.039-.049.024-.017zm1.384.583-.03.058.04.006.01-.06zm1.946.396.032.053-.073.03-.017-.024.004-.02zm-3.963-.59.036.07-.024.016-.026-.005-.03-.068.024-.017zm.423.073-.003.02-.048.034-.039-.049.024-.017zm2.954.506.017.024-.007.04-.02-.003-.034-.047.024-.017zm-.74-.085.02.004.034.047-.032.189-.049.039-.026-.094.007-.04zm-2.146-.326.045.008-.014.087-.053.033-.017-.024.003-.02zm-.233-.019.017.024-.005.026-.068.03-.033-.048zm.335.189.026.093-.024.017-.02-.003-.03-.073zm-.535-.029.04.007-.045.144-.041-.007.007-.04zm2.632.52q-.01.06.07.074l.018.024-.004.02-.025.023-.02-.004-.089-.125.03-.016zm-.118.042-.007.04-.048.04-.033-.053zm2.56.57.018.024-.004.02-.024.017-.02-.003-.017-.024.003-.02.024-.017zm-2.714-.313.066.011-.047.034-.026-.005zm-.109.023.02.003.034.048-.02-.003zm.338.168.03.068-.023.017-.02-.003-.034-.048zm-.487-.063.04.007q-.006.041.08.056l.017.024-.007.04-.13-.001-.03-.068zm.43.158.033.048-.048.033-.035-.069.029-.016zm.201.076.04.007-.01.061-.048.04-.033-.054q.04.007.051-.054zm.86.148.018.024-.004.02-.024.017-.02-.003-.017-.024.004-.02.023-.017zm-1.475-.232.04.049-.004.02-.04-.049zm1.515.37.107.018-.007.04-.107-.018zm-1.392-.197.04.007.04.049-.008.04-.11.002.003-.02zm1.378.278.017.024-.003.02-.024.017-.02-.003-.018-.024.004-.02.024-.017zm-1.605-.212.016.03-.003.02-.024.016-.02-.003-.017-.024.003-.02.025-.022zm1.56.356.016.024-.003.02-.024.018-.02-.004-.017-.024.003-.02.024-.017zm-.111.002.022.025-.004.02-.028.017-.02-.004-.018-.024.004-.02.024-.017zm.115.214.017.024-.003.02-.025.022-.02-.003-.016-.029.003-.02.024-.017zm.252.064.016.024-.004.026-.024.016-.02-.003-.017-.024.004-.025.024-.017zm4.413-6.065.038.014-.06.286-.061.11-.084.233.012.026-.007.02-.027.012-.019-.006-.012-.027-.02-.006.055-.09.098-.272-.05-.041q.066-.064.116-.2zm-1.385-.304.012.027-.028.077-.039-.014.009-.084.026-.013zm.544.44.039.013-.021.059q-.174.48-.229.752l-.095.142-.05.136-.011.215-.076.148.063.067.027-.012.02.007.121.088.452-.034.027-.013.014-.039q-.078-.028-.043-.125l.08-.037-.037-.08.02-.058q.015-.039.073-.017l.007-.02-.018-.072.082-.103.019.007-.012-.026.007-.02.047-.07-.02-.007-.026.012-.019-.006-.012-.027.028-.078q.058.022.072-.017l.021-.058-.024-.053-.036.097-.038-.014.049-.136.044-.182.08-.103-.011-.026.026-.012.02.006.012.027-.007.02-.103.16.02.007q.014.219.046.236l-.027.013-.007.02q-.014.038.064.066l.012.027-.007.019q-.014.039-.091.01l-.013.216-.007.02-.02-.007-.011-.026-.02-.007-.02.058-.017.104-.012-.026-.02-.007-.103.227q.152.187.11.303l-.188.152-.022.124-.04-.014.015-.039-.02-.006-.02.058-.025.189-.053.025-.016.104-.028.078-.053.024-.03-.099.08-.102.05-.136.004-.13-.02-.007-.651-.083-.062.11-.157.493-.08.037-.006.02-.039.227-.144.278-.35 1.148-.279.647q-.065.18.297.393.458.012.55-.24l.042-.117-.025-.053-.04-.014q-.12-.033-.137.015l-.014.04.018.072-.007.02-.02-.007q-.063-.023-.086-.186.052-.085.277-.097l.104-.226q-.052-.04-.016-.138l.065.002.07-.195.027-.254.026-.013.02.007.024.053.007-.02q.075-.236.046-.247-.143-.09-.127-.134l.007-.02.039.015.012.026.02.007.013-.039.04.014q-.029.078.03.099l.006-.02-.017-.072.054-.09.078-.214-.078-.028.007-.02.027-.012.007-.02.012.027.039.014.014-.039-.018-.072.067-.064.129-.415.039.014-.086.298-.043.117q-.04.337-.015.346l-.007.02-.147.1q-.08.285-.098.515l-.099.272-.039-.014.036-.098-.02-.006-.063.175.004.11.026-.012.02.007.012.026-.007.02q-.014.039-.073.017l.013.027-.007.02q-.108.054-.134.127l-.008.019.156.056q.226.104.163.28-.044-.017-.182.197l-.372.24v.241l-.02-.007q-.038-.014-.017-.072l-.027.012-.019-.006.03-.143-.568.234q-.52.053-.758-.033-.17-.122-.21-.208-.05.136-.108.115l-.013-.027.082-.102q-.207-.158.02-.785l.121-.395.19-.283-.012-.026.007-.02.082-.102.133-.37q.192-.53.174-.662l.055-.09.099-.272.216-.78.053-.024.021-.058q-.102-.037-.256-.203l-.179.067q-.014.039.08.205l-.078-.028q-.17-.062-.182-.286l.007-.02q.09-.247.562-.214l.026-.013.09.055q.11-.092.198-.06l-.018-.073q.15.01.22-.184.68-.374 1.036-.855zm-.674.04.012.027-.007.02-.053.024-.025-.053zm1.65.665.016.38-.007.019-.026.012-.02-.006q-.037-.322-.01-.4l.027-.012zm-.687.014.025.053-.008.02-.038-.014-.025-.053.026-.013zm.509.537.02.006-.008.02-.054.09-.04-.014.029-.078zm-2.986-.862.025.053-.072.017-.02-.006.015-.04zm1.52.66-.007.02.025.053.02.006.078-.037.015-.039-.02-.006zm-.237.047-.014.038.09.055.055-.09.039.014-.014.039.078.028.014-.039q-.078-.028-.064-.067l-.058-.021-.106.05zm.115.107-.007.02.025.053.02.006.02-.058zm1.21.725.013.026-.007.02-.026.012-.02-.007-.012-.026.007-.02.027-.012zm-1.497-.477-.014.039.058.02.014-.038zm-1.34-.244.024.053-.099.03-.012-.026.007-.02zm2.307 1.034.039.014.024.053-.026.012-.051-.04zm-.02.235.013.026-.007.02-.027.012-.019-.006-.012-.027.007-.02.026-.012zm-2.356-.656.012.026-.007.02-.026.012-.04-.014.008-.02zm1.846.91.013.027-.007.02-.027.012-.02-.007-.011-.026.007-.02.026-.012zm.048.172.013.026q.113.113.1.147l-.026.012-.14-.16zm-1.925-.632.012.026-.007.02-.053.025-.012-.027.007-.02zm2.666 1.076.012.027-.007.019-.026.012-.02-.006-.012-.027.007-.02.026-.012zm-3.021-1.007.039.014-.007.02-.076.148-.04-.014q.036-.097-.003-.111l-.039-.014.014-.039.066.002.025.053zm.622.226.039.014-.022.058-.038-.014zm-.202-.051.025.053-.007.02-.039-.015-.025-.053.027-.012zm2.635 1.042.012.027-.042.116-.04-.014.024-.124.026-.012zm-2.456-.868.012.027-.007.02-.026.012-.02-.007-.012-.026.007-.02.026-.012zm-.424-.043-.007.02-.08.036-.012-.026.007-.02zm2.915 1.056.078.028-.014.039-.078-.028zm-.562-.028.01.157-.02-.006q-.064-.067-.035-.145l.026-.012zm-2.242-.79-.003.13q-.037.103-.1.096l-.02-.007.081-.102-.003-.111.026-.013zm-.318-.093.018.072-.053.025-.012-.026-.027.012-.007.02.013.026-.027.012-.02-.006-.012-.027.022-.058zm2.54 1.184.058.02-.014.04-.066-.002zm-2.521-.87.019.007.025.053-.027.012-.02-.006-.012-.027zm2.196.796.012.026-.007.02-.053.024-.012-.026.007-.02zm-2.278-.693.018.072-.026.012-.02-.006-.025-.053zm.205.162.02.006.088.12-.026.013-.02-.007q-.073-.07-.069-.113zm2.598.963.012.026-.007.02-.027.012-.019-.006-.012-.027.007-.02.026-.012zm-.993-.294.077.028-.014.04-.077-.03zm.36.219.013.026-.007.02-.027.012-.02-.007-.012-.026.007-.02.027-.012zm.022.667-.035.097.02.007.035-.097zm-1.621-.016q-.028.078-.145.036l-.014.039q.088.031.06.197l.02.007.026-.012.013.026.058.021.014-.039q-.117-.042-.074-.159l.08-.102zm-1.44-.455.013.026-.015.039-.019-.007-.025-.053.027-.012zm1.143.546-.007.02.04.013.052-.025.007-.019-.039-.014zm.248.287-.021.059.039.014.02-.059zm1.25.497.038.014-.005.196-.053.025-.014.039.018.072-.06.044-.01.085-.019-.007.013.027-.05.136-.079.037-.012-.026.026-.013.05-.136.022-.124.048-.07.031-.209zm-2.48-.744.029.164-.026.012-.02-.006-.035-.145zm2.128.924.039.014-.007.02q-.036.097-.1.095l-.013-.026.007-.02zm-1.64-.088.026.053-.027.013-.058-.021.007-.02zm1.695.724.04.014-.043.117-.039-.014z" style="font-size:10.5833px;line-height:1.25;font-family:'Beyond Wonderland';-inkscape-font-specification:'Beyond Wonderland';white-space:pre;fill:bisque;fill-opacity:1" aria-label="Cart" transform="translate(-32.178 -46.745)"/></g></svg>