<?xml version="1.0" encoding="UTF-8" standalone="no"?>
<svg
   width="105.208"
   height="44.901"
   viewBox="0 0 27.836 11.88"
   xml:space="preserve"
   version="1.1"
   id="svg1"
   sodipodi:docname="faq_menu_item.svg"
   inkscape:version="1.4.2 (ebf0e940d0, 2025-05-08)"
   xmlns:inkscape="http://www.inkscape.org/namespaces/inkscape"
   xmlns:sodipodi="http://sodipodi.sourceforge.net/DTD/sodipodi-0.dtd"
   xmlns="http://www.w3.org/2000/svg"
   xmlns:svg="http://www.w3.org/2000/svg"><defs
     id="defs1" /><sodipodi:namedview
     id="namedview1"
     pagecolor="#ffffff"
     bordercolor="#000000"
     borderopacity="0.25"
     inkscape:showpageshadow="2"
     inkscape:pageopacity="0.0"
     inkscape:pagecheckerboard="0"
     inkscape:deskcolor="#d1d1d1"
     inkscape:zoom="5.9649197"
     inkscape:cx="46.941118"
     inkscape:cy="11.819103"
     inkscape:window-width="1920"
     inkscape:window-height="1004"
     inkscape:window-x="1920"
     inkscape:window-y="0"
     inkscape:window-maximized="1"
     inkscape:current-layer="svg1" /><g
     style="fill:bisque;fill-opacity:1"
     id="g1"><path
       d="m157.01 182.58.04-.012.039.129.082.131.297-.09.014-.025.02-.006.026.014.006.02-.013.03-.272.082.012.11.11.059.005.02.012.11.2-.018.123-.037.013.045-.232.07v.07l.452-.093.02-.006.011.04-.208.062-.317.074-.059.201.012.04.045-.013.059.052.072-.065-.027-.019-.006-.02q-.012-.039.052-.058.014-.096.098-.122l.006.02.127.188q.06-.018.042-.077l.017-.032.02-.006.059.122.02-.006-.052-.168-.051-.098.014-.025.02-.006.03.012.057.188.065.002.02-.098-.052-.097.02-.006.052.032.063.208.836-.252q.584-.176 1.198-.27l.363-.157.02.064q.565-.22.63-.325.262-.08.722-.542l.033-.123-.026-.084q-.086-.18-.368-.094l-.064.02q-.169.05-.19.196l.122.099.006.02-.025.007q-.182-.015-.22-.138-.041-.139.224-.316l.247-.075q.498-.085.619.316.095.317-.604 1.094-.42.397-.821.518l-.292.088-.382.023q-.54.232-.575.292l-1.201.314-.129.039-.117.056-.11.012-.045.013q-.208.063-.236.184l.006.02q.168-.05.733.103.49.03 1.108.416l.461.314-.017.032.006.02q.202.204.42.624.161.086.175.13l.168-.05q.767-.232 1.1-1.04l-.003-.155q-.035-.113-.175-.13-.243.105-.19.283l.065-.02.012.04-.064.02q-.035.01-.096-.084.002-.298.19-.355l.104-.03q.232-.071.303.161l.012.04q.243.807-.502 1.36l-.25.302-.056-.026-.35.198.005.02.074.387-.044.013-.038-.124-.053-.032-.02.006.008.111.203.44q.033.11-.04.995.038.323-.13.79-.305.615-.432.675.031.104-.28.36-.027.073-.171.186.004.102-.345.288-.303.248-.689.364l-.336.102q-.881.265-1.462-.013-.489-.155-1.076-.993l-.084-.206-.068-.228q-.178-1.107.139-1.202l-.013-.045h-.07q.13-1 1.218-1.329.59-.177 1.099.241l.006.02.02-.006-.058-.28-.203-.44.027-.052-.02-.064-.057-.048-.064-.212.041-.17-.045-.148-.081-.11.018-.027.02-.006.012.04.02-.007-.024-.15-.013-.044q-.06.018-.072-.021l-.006-.02.02-.006.026.014.02-.006-.04-.129-.065-.002-.029-.24q-.104.032-.123-.032l.028-.052.056.026q-.113-.268-.184-.306l-.033-.109q-.807-.026-1.054.048l-.485.146-.118.057-.025-.013-.02.006-.117.078-.104.031.006.02.028.019.006.02q-.049.09-.314.32-.467.562-.325 1.032.088.292.216.253l.067.007q.256-.136.202-.314l-.006-.02q-.07-.092-.24-.04l-.012-.046.137-.063q.254 0 .315.202.067.223-.277.515l-.122.06-.06.017q-.177.054-.444-.114l-.05-.168-.083-.202q.04-.011-.013-.633.25-.906.89-1.434l.526-.294-.006-.02-.025-.013-.007-.025q.563-.245.54-.32l.168-.05.077.02.35-.106.033-.053-.006-.02-.027-.018-.006-.02.054-.038-.013-.044-.058-.048-.025-.154.04-.012.08.18.015-.025.02-.006-.072-.092.014-.026.02-.006.037.054.025-.008-.031-.104q-.065.02-.077-.02l.014-.026.02-.006.03.012-.012-.045q-.019-.059-.147-.02l-.013-.045.148-.045-.025-.084q-.084.026-.186-.079l-.006-.02.02-.005.12.007-.005-.02-.064-.05.032-.054-.044-.057-.044-.235zm-4.857 1.648.006.02-.031.058-.026-.014-.008-.025.014-.026zm1.42-.428.09.065-.02.027-.039.012-.056-.027-.006-.02zm.753-.206q.094.01.103.04l-.013.025-.02.006-.082-.04zm3.252-.635.026.014.012.04-.027.056-.084.026-.013-.045.084-.026-.025-.013-.006-.02.013-.026zm-5.427 1.728.129-.038-.013-.045-.084.025zm2.837-.65.265.055.012.04-.02.006q-.262-.03-.275-.074zm-.642.215.052.028-.014.026-.02.006-.056-.027.014-.025zm-1.247.625-.065.16-.053-.033q.068-.113.118-.127zm-.331.191.15.57.026.014.025-.008-.176-.584zm4.928-1.486.03.104.046-.013-.052-.098zm-4.19 1.285.027.019.006.02-.027.05-.026-.013-.006-.02zm4.04-1.191.018.06.06-.02zm-5.435 1.703.026.014.008.025-.014.026-.02.006-.03-.012-.007-.025.019-.028zm1.162-.301.026.014.037.123-.04.012-.057-.118.014-.025zm-1.058.41.025.014.006.02-.013.026-.025.007-.026-.014-.006-.02.014-.025zm1.309-.33.03.013.008.025-.018.027-.02.006-.026-.014-.008-.025.014-.025zm-1.233.442.026.014.006.02-.012.03-.02.007-.027-.02-.006-.019.014-.026zm8.758-2.549.012.04.079.046.078-.045-.013-.044-.135-.002zm-6.99 2.13.052.027-.013.031-.064.02-.007-.025zm-.498.172.201-.012.012.04-.04.011-.2.017zm3.481-1.002.012.04.144-.043.097-.052-.006-.02zm-3.507 1.058.037.053-.012.031-.02.006-.032-.017-.006-.02zm.395-.12.02-.005.056.026-.018.027-.02.006-.026-.014zm7.314-2.113.011.04.065-.02-.012-.04zm-5.079 1.667.012.04.02-.007.027-.051-.013-.045-.02.006zm-2.497.704.04-.012.064.213-.04.012zm-1.271.707.07.07-.019.028-.02.006-.059-.052zm2.65-.664.005.02.06-.018-.018-.06-.02.006zm5.101-1.517q.292.053.685 0l.013.044q-.302.07-.704.007l-.008-.025zm-.065.16.026.014.006.02-.052.059-.04.011-.006-.02zm-2.173.742.045.148.18-.01.013.044-.078.045-.065-.002.12.396q.012.045-.052.064l.006.02.11-.012q.025-.17.06-.18.045.078.148.047l.025-.007q-.015-.087.034-.102l.025-.008.008.025-.019.027.006.02.155-.026.02-.006q-.088-.108-.182-.08l-.012-.04q.216-.038.265.126l.04-.012.006.02.058-.04q-.316-.277-.915-.458zm2.45-.647.027.019.006.02-.013.025-.02.006-.026-.014-.006-.02.013-.03zm.031.104.028.019.006.02-.014.025-.02.006-.026-.014-.006-.02.013-.03zm-7.158 2.25.057.188.02-.006-.057-.188zm3.23-.995.025.013.007.025-.04.077-.065.02-.012-.04zm-.24.12q.094.004.103.034l.02.065-.028.051-.026-.014-.006-.02.014-.025-.008-.025-.083-.04zm-2.855.948.013.115.1.26.02-.005-.113-.376zm5.408-1.631.02.064.057.031.04-.011-.008-.025-.065-.072zm-2.548.768.027.02.006.019-.014.026-.02.006-.025-.014-.006-.02.012-.03zm4.784-1.442.027.018.032.104-.04.012-.051-.098.012-.03zm-3.416 1.057.02-.006.051.028.013.044-.04.012zm3.196-.964.07.092-.116-.013-.012-.04zm-.883.331.065-.02.013.045-.065.02zm.343-.011.103-.032.013.045-.103.031zm-6.898 2.15.026.084.024-.008-.025-.084zm3.177-.958.163-.05.012.04-.164.05zm2.45-.717.013.044.059-.018-.013-.045zm.137.007.006.02.064-.02-.02-.065-.019.006zm-2.334.655.03.012.009.025-.02.027-.019.006-.026-.014-.008-.024.014-.026zm.064-.02q.093.004.104.04l-.014.025q-.093-.004-.104-.039zm2.989-.9.09-.007.137-.063q.009.03.104.039l.013-.026.025-.008.065.002.02-.027-.009-.025.241-.024-.013-.045.04-.012.013.045.024-.008q-.019-.064.02-.076l.064.05.158-.068.2-.017.025-.008.027-.052.258-.056.248-.075.012.04q-.144.043-.183.147l-.331.1.026.013.007.025q-.069.15-.024.299l.057.188-.031.058-.02.006-.062-.278-.108-.216-.02.006q.032.104-.013.117l-.04.012-.008-.025.023-.141-.124.037.031.104-.04.012q-.044.013-.07-.07l-.02.005q.026.084-.018.098l-.105-.06-.14.069-.105.031-.111.007-.012.03-.008-.024q-.012-.04.092-.07l-.013-.046-.097.057-.109.032-.013-.044.045-.013-.006-.02q-.208.063-.227-.002zm-.929.393.006.02.04-.013.027-.051-.011-.04-.02.006zm-1.373.37.194-.037.059-.039.026.014.006.02-.014.025-.045.013-.214.043zm.719-.195.012.04.208-.063-.006-.02zm.272-.082.006.02.15-.024.02-.006-.052-.027zm-.409.167.026.084-.04.011-.012-.04-.044.014.025.084.135-.02-.02.028.007.02.064.12-.033.054-.026-.014.014-.026-.025-.084-.084.025.062.208.053-.059.025.014q.006.09-.058.11l.054.253.045.148.02-.006-.057-.188.045-.013.012.04q.044.148.104.13l.012.04q-.09.027-.048.22l-.012.03.121.169.006.02-.045.012-.076-.111-.02.006.081.358.064.213.247.584q.249.827-.315 1.374-.145.109-.566.236-.428-.06-.583-.575l-.063-.207q-.033-.54.224-.618l.144-.044q.144.032.213.098l.043.143q.036.12-.067.226l-.149.044-.011-.04q.157-.085.117-.218-.087-.109-.121-.098-.213.064-.177.328.098.181.358.346l.24-.03q.398-.27.295-.612l-.023-.15q-.278-.51-.372-.481-.413-.243-.561-.198l-.104.031q-.56.169-.847.828l-.114.444q-.074.363.04.739l.171.337.05.168q.51.65 1.198.73l.704.062q1.39-.42 1.49-1.108.204-.326.293-.909.008-.207-.156-.751l-.051-.168-.192-1.011q-.182-.604-.829-1.461l-.02.006-.097.051-.122-.098-.064.09-.04.011-.008-.024.014-.026-.006-.02-.045.013-.092.141-.026-.013-.006-.02.012-.03q-.232.07-.401.029zm.733-.221.008.025.037.053-.012.03.064-.019-.019-.064-.058-.031zm-.61.324.124-.037.012.04-.124.037zm1.925-.58.136.001.013-.025.02-.006.09-.006.014-.026.03.012.007.02-.018.032.031.012.006.02-.031.058q-.137-.078-.28-.034l-.031-.013-.006-.02zm-6.737 2.074.063.278.006.02.02-.006-.024-.15-.045-.148zm3.582.172.013.045.278.008.06-.018-.02-.065q-.129.04-.169-.04l-.064.019zm3.625-.974.006.02.084-.026-.006-.02-.053-.032zm-4.074 1.293.02.064.02-.006.058-.039-.02-.064-.025.008zm-.034.264.019.06.02-.007.027-.051-.006-.02zm4.31-1.278.052.098.02-.006-.006-.09-.026-.014zm-4.742 1.883.008.025.059-.018-.02-.064-.019.006zm-.053.2.013.045.079-.024-.02-.064-.02.006zm4.657-.719.012.04.064-.02-.012-.04zm-4.503 1.838.023.08.04-.012-.024-.08zm.05.098.012.11.046.078.04-.012-.057-.188zm4.607-1.21v.09l.025-.007.073-.044-.019-.064zm-4.14 1.842.03.103.04-.011-.03-.104zm.147.344q.03-.01.088.06l-.02.006-.056-.027zm9.345-2.392.045-.013q.03.1.084.137l.057.188q.011.04-.072.065l-.013.03.006.02.18-.011.04-.012-.057-.188.047-.15q.146.108.198.281l.148-.045.014-.025.02-.006.039.058.115-.083q.02.134-.025.148l-.272.082q-.097.056-.06.175l-.015.025-.02.006-.056-.026-.037-.123-.5.15-.131.013-.017.032-.468.114-.54.163-.056-.027.079-.115.668-.201.622-.14-.013-.044-.02.006q-.272.082-.291.018l.391-.205-.013-.045.02-.006-.065-.072zm.08.23.026.014.02-.006.058-.04.026.014.008.025-.014.026-.084.025-.058-.031zm.274-.04.05.168.046-.013-.02-.064-.056-.096zm.238.182.006.02.084-.026-.006-.02zm1.843-6.78.05.039-.025.027-.02.001-.045-.044.02-.022zm-.425.173.044.045.026-.001.02-.022.02-.001.022.02v.02l-.015.089.26-.082.02.02.021-.001.194-.052.042-.002.002.041-.448.138v.021l.068-.004.002.041-.067.004.003.047q.087-.005.09.036l-.044.044-.044-.039.002.041.024.066-.02.022h-.02l-.05-.058-.126.048-.02.001-.002-.02q-.005-.088.124-.095-.146-.121-.332-.111l-.021-.02-.026.001-.003-.046.026-.001.063.017-.001-.02.024-.023v-.02l-.05-.044v-.02l.046-.004.086.063.067-.004v-.026l-.045-.06zm.103-.771.026-.001.127.443-.048.054.142.345.012.222.188.217.008.15q.132.603.315 1.11l-.025.028h-.025l.06.173-.048.055.004.072.056.075-.025.027.058.199.024-.027.052-.003q.008.139.202.49.014.248.305.558l.06.147.004.078q-.052.003-.057-.1h-.026l-.02.105.027.024q.004.072.154.064.067.467.435 1.058.582.983.588 1.096l-.018.151q.3.175.87.755.667.274.673.387l-.052.003.003.052.052-.003-.003-.052.052-.003q.092-.005.227.091l.024-.027.13.02.073-.005q-.006-.103.17-.113.483-.352.46-.75-.093-.393-.423-.375l-.02.001q-.254.014-.244.184.05.173.159.168.11-.053.118-.105l-.003-.052-.076-.073-.1.057-.023-.025v-.025l.07-.05.025-.002q.227-.012.238.184.012.217-.29.27l-.073.003q-.356-.063-.369-.306l-.004-.077q.074-.35.43-.37l.026-.001q.722-.04.883.526l.035.174.005.098q.032.588-.77 1.046l-.123.033-.552.03q-.914.05-1.4-.322-.652-.197-1.156-.993-.069-.017-.192-.29-.305-.366-1.024-.844-.006-.119-.44-.281-.291-.31-.547-.343v-.026l.023-.027v-.026q-.462-.104-.466-.176l-.019.027-.077.004q-.659-.218-.993-.272-.468.73-1.32 1.604-.13.37-.936.78.004.068-.46.295-.129.007-.257-.157l-.015-.273q.062-.003.066-.133.15-.179.462-.248l.073-.081.027.024.026-.001q.119-.006.436-.272.35-.113.981-.882.506-.406.492-.658l.093-.104-.381-.057q-1.445.178-1.428.482l.03.07.051-.002.123-.028-.033-.127.052-.003.077.073q.012.227-.383.295-.228-.013-.232-.085l-.007-.124q-.016-.294.892-.628.274-.093.899-.127l.529.023-.001-.026q.516-.598.557-.781.235-.246.692-1.166.219-.359.285-.745l.649-1.392-.014-.247q-.008-.14.113-.208zm.511.174.026-.001.082.068-.025.027h-.026l-.055-.074zm-.09.155.074.016.003.052-.047.003-.054-.049zm-5.57.905.027.024v.026l-.023.027-.052.003-.001-.026zm4.942.004.003.051.052-.003v.026l.123-.033-.054-.048zm.24.214.003.052.072-.004-.003-.052zm-4.977.324.052-.003.004.072-.052.003zm4.45.155q-.427 1.11-1.18 2.3l-.301.441q.284-.015 1.734.485.472.3.642.291l.23.138-.003-.052q-.215-.34-.253-1.037-.328-.598-.844-2.567zm-3.482 1.07.103-.006.003.052-.103.006zm4.61-.102.002.026.034.148h.025l-.004-.073-.031-.102zm-3.77.709q.126.024.128.07l-.024.027q-.126-.029-.128-.07zm.158.141.047-.003.004.077-.044.055-.027-.025-.001-.026zm4.135.38.004.072.05.049.02-.1zm.128.065.006.103.052-.003-.003-.052zm-1.824.151h.026l.054.048-.024.022-.026.001-.027-.019zm.906.002.004.073.098-.005-.001-.026-.054-.044zm-2.446.232.001.026h.021l.076-.03-.003-.052zm3.546 1.99.004.078.096-.031.079.021-.082-.073v-.026zm-5.842.594.004.078.049-.055-.001-.026zm-.442.154.004.072.026-.001.049-.054-.001-.021zm6.134-.263.072-.004.055.044v.025l-.075.03-.05-.07zm-5.522.478.15-.008.003.046q-.057.003-.12.084l-.046.003-.003-.051.046-.003-.027-.025zm5.714-.188.046-.003q.15.007.154.064l-.121.058-.027-.024-.001-.026.024-.022q-.072.004-.075-.048zm-5.453.324.204.035.174-.03.05.044.051-.003q-.004-.073.048-.075l.022.024.003.047q.003.051-.07.055-.5.028-.506-.07zm6.666-.09.004.077.052-.003-.004-.078zm-.824.07q.063.012.16.193l-.018.027-.026.001-.113-.17zm.934.048.004.077.047-.003-.004-.077zm.11.195.002.052.078-.004-.003-.052zm-6.601 1.293.022.02v.025l-.043.054-.027-.024-.001-.026zm-.226.033.026-.001.054.049.001.026h-.025l-.055-.048zm.618.225.067-.004.066.064-.02.021-.02.001-.09-.041zm-1.17.1.042-.002.114.2.003.063h-.02l.022.02-.015.105.005.082.04-.002q-.005-.103.037-.105v.02l.02-.021.041-.002.008.144q-.103.01-.1.068l.004.062.02-.001.016-.084.042-.002.008.144.02-.021.02-.001.083.016v-.02l-.022-.02-.001-.02.041-.003q.003.062.045.06l.164-.03-.022-.02-.001-.02.267-.035.003.062.062-.003q.184-.052.181-.093l.105.015.062-.003.039-.044.021.02.558-.03.021.019.162-.071.27.026.02-.021.044.039.64-.035-.001-.02-.476.004-.002-.041.06-.024.105.015.144-.008.288-.037q.08.037.375.042l-.02.021.001.021.164-.03.188.031.083-.005.002.042.245-.055.002.041.083-.005-.022-.02-.002-.04.041-.003.002.042.021-.001.102-.027.187.011.206-.011.022.02.02-.023.103-.006.145.013.002.042-.123.007v.02l.475-.026-.002-.041.785-.043-.002-.041q.783-.064.78-.105l.001.02-.019.022.001.02.022.02-.02.001.02.02.003.041-.372.02-.002-.04-.186.01.002.04-.103.006-.66.057.003.041-.556.052-.103.006q-.042.002-.045-.06l-.083.005-.063-.017-.122.027-.722.06q-.003-.052-.086-.057l-.6.012-.024-.06-.144.007-.002-.041.124-.007-.001-.02-.062.002-.164.03v.02q.063-.003.065.038l.124-.007.002.042-.165.009-.064-.038-.166.009.002.04-.144.009-.394-.02.066.08.003.061-.078.087q-.002-.041-.085-.037l-.022-.019v-.02l.057-.087-.104-.015-.306.1-.394-.02q.006.103-.056.106l.026.103-.144.008v.02l.042-.002.043.04.002.04-.084-.036q.006.103-.077.107l-.022-.019-.002-.041.062-.003-.001-.02q-.088-.1-.13-.097l-.002-.042.042-.002-.022-.02-.001-.02q.062-.003.059-.065l-.022-.02-.145.008.002.042.022.02.001.02-.02.021-.02.001-.048-.121-.224.053-.022-.02-.02.002q-.124.017-.122.048l-.022-.02-.02.001-.02.022h-.02q-.003-.04-.065-.037l-.12.09-.04.001-.004-.062-.04.002.05.163-.082.025.022.02v.02l-.006.249.024.081h.02l-.017-.33.041-.003.001.02.056.267-.041.002.009.165-.038.064.065.059.006.103-.016.083.025.082-.08.066.076.245-.02.021-.02.001-.076-.264.056-.107-.006-.103-.026-.102-.042.002.007.124-.058.065-.022-.02.02-.021-.003-.062-.044-.04.02-.02-.002-.022-.044-.06.015-.104-.003-.061.062-.003.002.04-.02.022.001.021h.02l.02-.023-.006-.103-.102.027-.022-.02-.002-.041.04-.044.001.041.083-.005q-.025-.081-.108-.076l-.02.021-.025-.102.017-.063-.062.003-.002-.041.022.02.02-.002.04-.043.02-.001.007.124.02-.001.007-.27-.022-.02-.02.002v.02l-.021-.02-.021.002q-.102.031-.099.088-.041.002-.044-.06l-.02.022-.041.002-.064-.038-.186.01.002.041-.02.001q-.004-.061-.066-.058l-.06.024-.395-.02-.002-.04.186-.011-.001-.02-.227.012-.002-.041.041-.002q.377-.021.622.007l.019-.022.002.041.062-.003-.044-.039q-.005-.083.12-.09l-.002-.04.107.076.02-.021.022.02.02-.002.102-.026v-.02l-.022-.02-.001-.02q.061-.004.06-.045l-.002-.021-.074-.224.02-.021-.022-.02-.021.001.017-.063-.051-.183zm1.376.065v.02l-.063.071-.044-.044zm-.593.244.005.083.062-.003.02-.022h.02l.005.082h-.02l-.168-.031v-.021zm-1.36.095.021.02.001.02-.039.044-.022-.02v-.02zm.147.054h.02l.087.057-.103.006zm1.51-.04.002.061-.041.002-.001-.02zm1.444-.08.022.02.003.062h-.021l-.044-.038zm1.445-.079.041-.002.002.042-.082.024v-.02zm-3.157.194.044.039v.02l-.04.002-.044-.039.02-.022zm-1.256.13.103-.006.002.042-.081.024-.022-.02zm4.07-.14.002.021.082-.005v-.02zm-2.164.16.001.021.104.015.042-.002-.002-.041zm.165-.009.002.042.02-.022.02-.001.084.016-.002-.041zm.249.007v.021l.125-.007-.001-.02zm-.575.094.007.124.12-.09-.002-.04zm-.697.12.062-.002.002.041-.063-.017zm.251.05.041-.003.005.083-.14.07q-.063.002-.06.044l-.042.002-.126-.035-.002-.04.084.015.06-.044.021.02.02-.002q.06-.065.142-.07zm.252.068.085.037-.015.104-.02.001q-.003-.057-.07-.12zm-.122.028.043.039-.02.021-.02.001zm-1.071.1.02-.001.002.04-.039.044-.021-.019-.001-.02zm1.095-.04.062-.003-.02.022.001.02.086.058.001.02-.041.003q-.036.002-.09-.12zm.433-.023.02-.001-.038.043-.02.001zm-.804.064.022.02.002.041-.06.024-.022-.02-.02.023-.002-.042zm.125.014.103-.006.05.163-.019.022-.041.002q-.003-.062-.065-.059l-.001-.02.038-.065-.001-.02h-.021l-.02.022-.02.001zm1.178-.044.022.02v.02l-.019.022-.02.001-.022-.02-.001-.02.02-.022zm-.7.08.005.083h-.02l-.025-.06.02-.022zm-.121.048.04-.002.002.02-.017.063-.021.001zm.704.003.02-.001.044.039-.062.003zm-.06.044.002.042.022.02-.02.02-.02.002.021.02.001.02-.02.001-.044-.039.039-.044-.022-.02.02-.02zm-1.258.09.104.015.02-.022.003.062-.103.006-.022-.02-.1.048-.022-.02-.001-.02zm1.363-.054.042-.002.024.082-.017.063-.041.002.02-.022-.027-.102zm-.7.06.062-.004.043.04-.103.005zm.784-.044h.02l.044.038-.02.022.044.039.001.02-.02.001q-.063-.017-.069-.12zm-1.278.09h.02q.084.026.086.057l.244-.075.022.02.002.04-.041.002-.144.03.001.02q.007.124.152.116l-.059.065-.194-.134v-.021l.061-.003v-.02l-.105-.016-.02.022zm-.18.135.045.06.002.04-.02.002-.066-.059zm1.22-.046-.06.065-.043-.039zm-.64.055.042-.002.002.042-.04.043-.02-.02zm-.411.044.066.079-.082.005-.024-.06.019-.023zm1.076-.018.021.02.02-.001-.016.063h-.021zm9.478-9.972.468.078q.536.215 1.132.377.562.372.686.534.44.251.418.384.39.557.442 1.121.086.146.088.476l.034.173-.133.544q.046.008.041.258l-.272.751-.49.799q-.162.161-.305.452l.02.003.384.085.493.061-.003.02-.024.017-.003.02.265.045.003-.02-.142-.024.007-.041.183.03.034.048-.064.01-.007.041.081.014.085-.007.078.034.034-.078-.04-.007.006-.041.225.037.105-.003.034.048.184.03-.017-.023.007-.041.163.027.017.024.024-.017.57.095-.007.04-.04-.006-.68-.072-.003.02.367.062-.007.04-.448-.074-.068.03-.055-.05-.068.03-.122-.02-.054-.051-.082-.014q-.01.061-.051.055l-.326-.055-.333-.14-.061-.01-.003.021.04.007-.007.04-.2-.054-.204-.034-.068.03-.245-.04.007-.04.204.033.048-.034-.286-.047-.737.652q.023.24.241.69.075.243.34.476.08.086.68.448-.01.051.332.14l.062.01.067-.03.225.037q.703.117.951-.428l.065-.136q-.104-.416-.445-.473-.313-.01-.35.214-.035.21.265.296l.04.007q.154-.042.174-.16 0-.062-.105-.122l-.106.003-.017-.024.003-.02.13-.02q.233.107.203.285-.044.265-.39.207l-.103-.017q-.35-.158-.309-.408.136-.438.503-.377l.146.003.041.007q.107.018.252.126l-.024.017-.007.04.04.008.008-.041.02.003.088.099-.04-.007-.008.04.041.007.007-.04.02.003q.16.173.13.356l-.03.184q-.04.24-.416.476l-.421.139-.003.02-.02-.003-.017-.024-.483.003q-1.03-.171-1.617-.73-.466-.602-.622-.921l-.13-.232-.02-.003q-.608.13-1.118.044l-.897-.15q-.932-.28-1.457-.682-.418-.353-.564-1.017-.206-.243-.32-.598l.065-.136-.02-.003q-.142-.034-.079-.41-.035-.007.02-.5.08-.47.375-1.237l.31-.724.258-.292.016.024.062.01.003-.146.2-.197q.123.02.143-.102l-.02-.003-.024.017-.02-.003.002-.02q.121-.159.194-.157l.058.03q.047-.285 1.26-.523.493-.064.84-.007zm3.374.751.017.024-.003.02-.024.017-.102-.017.007-.04zm-5.958 1.794q-.033.198.014 1.301.036.006.085.748l.102.394q-.024.3.434.91l.34.35.822.347.187.01.384.086.041.007q.26.043.67-.12.147-.001.152-.036l-.06-.262.006-.04.051-.055.007-.041-.061-.136-.065.01q-.037-.215-.129-.23l-.04-.008.007-.04.06.01.004-.02q-.375-.928-1.128-1.404l-.282-.068q-.26-.044-.462.258-.031.183.21.245l.102.017q.053-.002.126-.126.012-.072-.143-.15l.007-.04.02.002q.225.038.194.221l-.003.02q-.037.225-.425.16l-.02-.003q-.357-.06-.36-.353l.003-.02q.039-.235.56-.473l.19-.01q.557.093.78.235h.125q-.013.076.285.299.285.335.578.809.18.108.255.482l.098.038.163.027-.017-.024.007-.04.02.002.283.068q.305-.572.418-1.25l.02-.123q.074-.066.085-.132l.065-.387q-.043-.28.02-1.003-.06-.11-.214-.979-.196-.614-.54-1.033-.448-.578-1.427-.74-1.259-.21-1.964.594-.163-.028-.262.564-.116.32-.289.601zm5.842-1.73.017.025-.003.02-.047.034-.017-.024.003-.02zm-4.75-.54-.003.02.04.007.048-.034.003-.02-.04-.007zm-.364.17.04.007q.113-.045.126-.126l-.02-.003q-.134.05-.146.122zm-1.543.077.034.048-.024.017-.06-.01.002-.02zm8.03 1.361.02.003.034.048-.003.02-.02-.003-.034-.048zm.05.071.035.048-.003.02-.024.017-.003.02.017.024-.024.017-.02-.003-.034-.047zm-7.61-1.228.033.048-.068.03-.017-.023.003-.02zm5.823 1.391-.003.02.003.106.041.007.055-.075.003-.02zm-.839-.119-.007.041.061.01.007-.04zm.045.112-.014.082.04.007.014-.082zm.047.218.034.047.02.003.014-.081-.02-.003zm.758.105-.01.061.034.048.02.003-.003-.105zm-1.991-.123.017.024-.003.02-.116.065-.017-.024.007-.04q.006-.036.112-.045zm2.052.385-.01.061.04.007.01-.061zm-5.984-.81-.01.061.04.007.01-.061zm5.957 1.099-.01.06.04.008.01-.061zm-1.96-.055-.008.04-.085.008-.017-.024.003-.02.024-.017zm1.892.462-.02.123.04.007.02-.123zm-6.1-.242-.03.058.04.007.01-.061zm-.05.18-.008.041.034.048.02.003.007-.041-.033-.048zm5.803 1.262-.003.146.04.007q.021-.122.082-.112l.007-.04-.02-.004zm-6.052-.402-.003.02.061.01.01-.06-.02-.004zm5.614.895-.007.04.06.01.008-.04zm-1.34-.014q.159.026.194.22l-.023.018q-.099-.038-.089-.099l.03-.058-.02-.003-.105.003-.017-.024.003-.02.024-.017zm.303.197.068.095-.024.017-.06-.01.002-.02.024-.018-.017-.023zm-4.937-.803.034.048-.003.02-.167.119-.034-.048zm7.591 1.476.017.024-.003.02-.024.017-.02-.003-.017-.024.003-.02.023-.017zm-7.792-1.279.027.088-.109.024-.044-.112.024-.017zm-.177.055.034.047-.023.017-.02-.003.016.024-.003.02-.047.034-.02-.003-.035-.047q.056-.085.099-.089zm3.742.812.01.065.228.017-.003.02.088-.027.098.038.225.037q.071.138.224.163l.024-.017.02.003.017.024-.003.02-.064.01-1.271-.295-.17.013-.055-.05-.122-.021.007-.04.286.047.146.003-.003.02zm.788.174.034.047-.024.017-.02-.003-.034-.047.024-.017zm-2.124-.334.017.024.143.024-.007.04-.143-.023-.034-.048zm.367.062.12.04-.008.041-.102-.017-.017-.024-.024.017-.101-.017.007-.04zm1.033.214-.003.02.102.017.003-.02zm1.441.282-.003.02.05.072.065-.01q-.01.061.13.23l-.003.021.02.003q.159-.104.275-.268l-.343-.078-.102-.017zm.02.13-.007.04.051.072.062.01.007-.041-.092-.078zm-1.671-.154.02.13-.024.016-.02-.003-.109-.102.003-.02zm-1.985-.163-.014.081.02.003q.011-.06.052-.054l.007.085.061.01.007-.04-.05-.072zm2.06.343.04.007.034.048-.048.034-.034-.048zm4.179.823.017.024-.003.02-.048.034-.017-.023.003-.02zm-8.788-1.65q-.007.042.054.052l-.003.02-.048.034q-.03-.005-.047-.092l.023-.017zm.119.293-.003.02-.048.034-.017-.023.003-.02.024-.018zm.003.105.016.024-.003.02-.023.017-.02-.003-.018-.023.003-.02.024-.018zm8.237 1.935.034.048-.047.034-.03-.068.023-.017zm-8.268-1.625.04.007.004.105-.041-.007zm.47.513.017.024-.003.02-.024.017-.02-.003-.018-.024.003-.02.024-.017zm7.54 1.404-.003.02-.048.035-.034-.048.024-.017zm-8.231-1.598.017.024-.003.02-.024.017-.02-.003-.017-.024.003-.02.024-.017zm.38.105.018.024-.003.02-.048.035-.017-.024.003-.02zm-.496-.04.041.006.007.085-.024.017-.02-.003-.017-.023zm9.112 1.85.016.023-.003.02-.023.018-.02-.003-.018-.024.003-.02.024-.017zm-.017.102.034.047-.003.02-.041-.006zm-1.791-.194.034.047.102.017.007-.04-.078-.035zm-6.175-1.052.017.024-.003.02-.024.018-.04-.007.003-.02zm-.394-.023.024.108-.02-.003-.079-.034.003-.02zm-.64-.374.031.068-.007.04q-.03.058-.132.041l-.017-.024.01-.06.04.006-.006.041.02.003.048-.034-.034-.048zm.963.449.02.003-.007.04-.047.034-.017-.023.003-.02zm-.579-.364.017.024-.003.02-.023.017-.02-.003-.018-.024.003-.02.024-.017zm.079.16.03.067-.023.017-.02-.003-.059-.03.007-.041zm.721.513.017.023-.003.02-.024.018-.02-.003-.017-.024.003-.02.024-.017zm-1.275-.46.04.008-.013.081-.04-.007zm.85.494.072.074-.003.02-.048.035-.048-.092.024-.017zm-.571-.153.03.067-.003.02-.04-.006-.035-.048zm.754.251.017.024-.003.02-.048.034-.034-.047zm-1.07-.116.06.01-.006.041-.061-.01zm.404.089-.003.02-.048.034-.017-.024.003-.02.024-.017zm5.179.864.06.01-.006.04-.061-.01zm.693.115.061.01.034.048-.024.017-.04-.007-.035-.047zm-6.12-1 .02.003-.003.02-.03.059-.02-.003-.035-.048zm6.035 1.007.04.007.008.085-.02-.003-.035-.047zm-5.651-.922.183.031.034.048-.003.02-.047.034-.041-.007.003-.02.024-.017.003-.02-.163-.028zm-.425.034.02.003.034.048-.023.017-.082-.014.003-.02z"
       style="font-size:10.5833px;line-height:1.25;font-family:'Beyond Wonderland';-inkscape-font-specification:'Beyond Wonderland';stroke-width:.264583;fill:bisque;fill-opacity:1"
       aria-label="FAQ"
       transform="translate(-152.074 -181.523)"
       id="path1" /></g></svg>
