<svg width="148.445" height="155.911" viewBox="0 0 39.276 41.251" xml:space="preserve" xmlns="http://www.w3.org/2000/svg"><path style="fill:#f7e6d3" d="m117.13 151.208-.029-.045.073-.06c.04-.032.285-.113.545-.18.26-.066.748-.226 1.083-.356.335-.13.644-.24.686-.245a.302.302 0 0 0 .143-.072.24.24 0 0 1 .136-.063c.038 0 .204-.136.37-.302l.302-.302.105-.223c.058-.123.133-.37.167-.549l.061-.326v-.828c-.002-1.036.081-1.002-.866-.36l-.218.147h-.148c-.197 0-.204-.021-.162-.464.02-.21.024-.435.008-.5l-.028-.12-.214.244-.215.244v.209c0 .115-.024.294-.053.399l-.053.19-.096.05-.095.052-.08-.03-.08-.031v-.147c0-.08.044-.264.099-.407l.099-.26-.03-.151-.03-.15-.078-.03-.078-.03-.218.239a7.746 7.746 0 0 0-.695.977c-.017.03-.054.3-.083.6l-.051.546-.102.339c-.056.186-.146.41-.199.496l-.097.158-.104.027-.103.027-.112-.078-.111-.078.031-.31c.03-.297.128-.65.201-.724a.167.167 0 0 0 .035-.102c0-.037.092-.27.203-.52l.204-.45-.004-.248a1.36 1.36 0 0 0-.04-.336l-.035-.09-.11.078c-.06.042-.215.244-.342.45l-.232.372-.072.528c-.094.687-.245 1.256-.442 1.66l-.158.324-.134.05-.133.051-.115-.133-.114-.133v-.143c0-.079.044-.255.098-.391.054-.136.18-.465.28-.73.1-.266.262-.635.36-.82l.176-.336v-.357l-.089-.108-.089-.109-.163.048c-.385.112-1.058.729-1.288 1.18l-.1.197h-.073c-.04 0-.095-.04-.122-.09l-.05-.088-.118.108c-.064.06-.168.133-.23.165l-.11.058-.092-.122-.092-.122-.127.088c-.07.048-.168.102-.219.12l-.091.034-.128-.128-.127-.127.033-.266c.019-.146.055-.304.08-.351a.384.384 0 0 0 .046-.136v-.05l-.242.13a2.485 2.485 0 0 0-.48.376l-.238.245-.138.034-.137.035-.081-.05-.081-.052-.016-.128-.015-.129.138-.109a.857.857 0 0 1 .27-.14c.245-.058.355-.22.149-.22-.11 0-.943.334-1.032.414l-.048.043.057.057.057.057-.027.07-.027.07-.21.001c-.271.001-.292.017-.492.38-.212.385-.295.483-.412.483h-.094v-.375l.203-.24c.246-.292.246-.299.038-.303-.249-.005-.738-.118-.807-.187l-.06-.06.085-.033.085-.033.495.052c.272.028.507.043.522.034.061-.037.26-.491.287-.656l.029-.178-.088-.034-.087-.033-.16.083c-.377.195-.515.292-.655.462l-.148.18h-.08c-.062 0-.354-.148-.468-.238-.012-.009.03-.11.094-.223s.102-.22.086-.235c-.058-.058-.184.103-.367.469l-.187.372-.215.247c-.119.135-.297.29-.396.343l-.18.097-.08-.067-.08-.066v-.4l.101-.22.1-.222.218-.186a3.42 3.42 0 0 1 .459-.322l.242-.136.052-.19.051-.19-.054-.103-.055-.101h-.149c-.082 0-.301.057-.487.127-.185.07-.38.127-.433.127h-.095v-.16l.342-.158.343-.158.292-.003.291-.003.103.102.102.102.008.215.008.216.09-.03.092-.028.104.055.103.055v.079c0 .043.017.07.038.06l.228-.114.19-.097.09.083.092.082.072-.045c.04-.025.09-.034.11-.022.02.013.051 0 .069-.029.017-.028.084-.051.149-.051h.117l.134.134.134.134v.158a.786.786 0 0 1-.077.304c-.124.237-.095.24.343.03l.42-.202.297-.062.297-.062.113.13.112.131.236-.123.235-.123.102.032.1.032.032.097.03.096-.079.266a1.904 1.904 0 0 0-.079.383v.118h.15l.318-.381.318-.381h.18v.079a.685.685 0 0 1-.078.228 3.27 3.27 0 0 0-.125.277l-.049.127h.044c.024 0 .129-.086.233-.19l.189-.19.2-.432c.11-.236.228-.447.26-.467l.059-.036.064.054.065.054-.032.133a.621.621 0 0 1-.109.223l-.077.09h.05c.026 0 .116-.071.198-.157.082-.086.275-.233.428-.326l.28-.17.178-.021.177-.022.112.05.112.05.068.17.068.171.179-.265.178-.266.156-.091.157-.091.128.049.13.049.024.091c.014.051.04.156.057.233l.031.141.306-.406c.168-.223.365-.452.437-.509l.132-.103h.109c.06 0 .16.035.221.079l.113.079.001.086.001.086.226-.241.227-.242h.255l.038.14c.02.077.036.317.033.533-.003.217.009.392.026.39.04-.005.246-.132.499-.308.106-.074.287-.192.402-.263l.21-.129.001-.397.002-.398.081-.378.08-.379.077-.076.077-.077.06.061.062.061-.086.344a4.507 4.507 0 0 0-.099.495l-.013.152.162-.016.162-.016.105.056.104.056v.092c0 .05-.044.132-.098.181l-.098.09-.062-.039-.062-.038.04.064.04.065-.147.116-.146.117.016.855.016.856-.055.381-.056.381-.171.356-.172.355-.152.153c-.237.239-.318.295-.67.468-1.062.519-2.508.952-2.613.782zm-1.402-1.222a4.45 4.45 0 0 0 .352-1.008c.107-.525.094-.502-.404.715-.17.413-.128.645.051.293zm1.398-1.122c.068-.325.07-.543.003-.348l-.168.502-.144.432.022.102.023.101.093-.21c.052-.116.129-.377.171-.58zm-8.44-1.005c.125-.225.088-.242-.152-.068s-.349.33-.397.568l-.036.177.245-.254c.135-.14.288-.33.34-.423zm1.091-.263c.062-.084.099-.153.081-.153-.06 0-.327.21-.327.258 0 .1.138.04.246-.105zm11.413-1.423c.096-.106.074-.12-.115-.07l-.114.031v.141h.068c.038 0 .11-.046.16-.102zm-17.897.498-.056-.056.05-.094.05-.093h-.097a.975.975 0 0 1-.278-.076l-.182-.076-.07.027-.071.028-.28-.105-.28-.105-.18-.18-.18-.18-.03-.152-.03-.153.068-.164c.037-.09.15-.241.25-.336l.183-.172-.028-.045-.028-.046-.312.017-.313.016-.016-.172-.016-.172-.246.03-.246.028-.03-.077c-.046-.12.008-.168.23-.203l.203-.033.111-.09.112-.09-.134-.06-.134-.062-.195.133-.196.133h-.461l-.113-.08-.113-.078v-.196l.115-.075.115-.076.317-.012.316-.013v-.042c0-.023-.053-.096-.118-.16l-.117-.118-.331-.058-.332-.058-.376.03-.377.03-.096-.072-.095-.073.035-.237.036-.236h.092a.423.423 0 0 0 .213-.102l.12-.102-.12-.101-.12-.102h-.354l-.025-.096-.025-.097-.276.122-.277.122-.03-.077-.029-.077.063-.075.063-.076h-.216l-.102-.101-.101-.102v-.11c0-.06.035-.15.079-.198l.079-.087-.257-.061c-.284-.068-.329-.108-.284-.25l.03-.095.215-.055c.118-.03.259-.086.314-.127l.1-.073-.072-.085a1.233 1.233 0 0 0-.303-.202l-.231-.117-.265.035-.264.035-.168-.054-.167-.054-.016-.191-.016-.19.143-.056.143-.055.203.048c.112.027.25.065.305.085l.102.036-.174-.154-.174-.155-.226-.034-.226-.034-.176.055a.528.528 0 0 1-.25.025l-.075-.028.016-.081c.008-.045.067-.107.13-.138l.113-.057-.21-.063-.208-.062-.119-.128-.118-.128-.062-.276-.062-.277.057-.057.057-.057.073.06c.04.033.098.158.128.278l.054.218.1.09.1.09.328.04c.18.023.434.03.562.015l.235-.026v.22l-.158.067-.158.066.145.03.145.03.19.175.191.175v.314l.199.102c.109.055.247.163.307.24l.109.138-.016.128-.015.128-.17.114-.17.115.208.083.209.083v.194l-.178.085c-.226.107-.225.154.006.197l.184.035.394-.033.395-.033.032.083.032.083-.056.068-.056.068.132.033.133.033.075.108a.49.49 0 0 1 .075.239v.132l.241.072.242.073.015.132.015.131.257.06c.141.032.32.104.398.16l.141.1.08.2.08.199.15.033c.157.034.223.091.275.24l.03.085-.093.119-.094.12.025.13.025.131.39.03.388.03.471-.059.47-.058.343.09.342.092.216.176.216.177v.252l-.135.125c-.134.124-.293.162-.343.081l-.027-.043.15-.143.149-.142-.139-.12a1.128 1.128 0 0 0-.341-.183l-.203-.062-.468.004-.467.004-.227.116a1.756 1.756 0 0 0-.382.277l-.156.161-.032.16-.032.159.18.174.18.175.31.087c.17.048.469.1.663.116l.353.03.395-.376c.478-.455 1.06-.897 1.428-1.083l.272-.137.07.027c.04.015.072.059.072.098v.07l-.346.325c-.19.179-.4.403-.466.498l-.121.173.193.162.193.162-.034.105-.033.105-.158.055-.158.055h-1.188l-.096.107a.848.848 0 0 1-.178.15l-.082.043zm1.609-.527c.01-.01-.04-.087-.112-.173l-.132-.156.053-.138a.861.861 0 0 1 .133-.228c.216-.239-.017-.093-.434.273l-.468.409.026.04.025.042.445-.026c.245-.015.454-.034.464-.043zm-4.024-2.341-.034-.034-.034.034-.034.034h.136zm-.77-.982.031-.051-.08-.004a4.357 4.357 0 0 0-.472.004c-.084.017.176.095.327.099l.162.004zm-2.743-2.794c-.018-.028-.066-.051-.108-.051h-.076l.031.05c.017.029.066.051.108.051h.076zm24.834 4.379c.023-.036.273-.239.557-.45.284-.213.545-.409.58-.437l.064-.05-.001.044c-.001.039-.185.182-1.033.806-.113.083-.188.122-.166.087zm1.375-1.07c.082-.088.171-.16.199-.16h.049l-.096.107a.861.861 0 0 1-.199.159l-.102.052zm.283-.23c0-.01.131-.127.292-.26.701-.577 1.556-1.472 2.197-2.3.154-.198.3-.362.324-.364l.044-.003-.07.097c-.705.983-2.787 3.097-2.787 2.83zm6.197-1.222c0-.044.023-.08.051-.08a.05.05 0 0 1 .05.048c0 .027-.022.062-.05.08l-.05.031zm-.99-.893c-.308-.28-.568-.537-.58-.571-.011-.035.183.12.432.342.665.595.81.738.756.737-.027 0-.3-.229-.608-.508zm-1.16-1.042-.297-.227h-.258l-.273.156a1.65 1.65 0 0 1-.272.14c0-.01.068-.15.15-.313l.151-.297-.077-.186a2.282 2.282 0 0 0-.151-.298c-.116-.177-.088-.19.1-.046l.175.133h.253l.16-.135c.205-.172.642-.765.866-1.174.333-.608.203-.224-.23.678l-.436.906.03.137c.017.075.132.267.256.427.326.42.297.439-.147.099zm-1.967-1.976c-.785-.72-2.526-2.468-2.46-2.468.028 0 .485.437 1.015.97a56.25 56.25 0 0 0 1.473 1.433c.45.41.677.646.623.646-.01 0-.303-.262-.65-.58zm3.132-2.2c-.041-.041-.039-.242.003-.284l.033-.033.068.056a.216.216 0 0 1 .068.147v.09l-.07.027c-.04.015-.086.014-.102-.003zm.454-.975-.032-.052.056-.106.057-.106.06.02.06.02v.244l-.084.016c-.046.01-.099-.007-.117-.036zm-33.782-.457c-.016-.026-.05-.274-.077-.55a4.652 4.652 0 0 0-.081-.588l-.033-.087-.198.179c-.109.098-.223.179-.254.179h-.056l.034-.134a1.27 1.27 0 0 1 .157-.316l.124-.182-.063-.033a1.625 1.625 0 0 0-.33-.067 2.34 2.34 0 0 1-.343-.063l-.076-.03v-.242h.756l.027-.044.027-.043-.176-.206c-.294-.343-.217-.42.16-.16.126.087.236.15.244.14.012-.014.076-.759.079-.92 0-.02.045-.037.099-.037h.098l.025.089c.014.048.04.289.059.534l.034.445.256-.204c.14-.112.274-.204.297-.204.11 0 .074.107-.114.334l-.207.25.146.032c.08.018.255.035.389.038l.243.006.03.08.031.08-.08.081-.08.08-.283.024-.282.024v.05c0 .029.08.141.18.25l.18.2-.033.052-.033.053-.131-.033a.998.998 0 0 1-.274-.134l-.142-.102-.047.029-.046.029-.005.505c-.006.61-.092.84-.23.616zm34.11-.283-.062-.075.03-.077c.016-.042.061-.077.1-.077h.073l.029.11c.049.189-.052.26-.17.12zm.483-1.042c-.084-.022-.358-.08-.61-.128a8.847 8.847 0 0 1-.907-.233l-.45-.147-.21-.141-.21-.14-.117-.203-.117-.202.026-.247.026-.247.09-.069.091-.068.221-.002.221-.002.175.083.175.083.14.209c.078.115.23.398.339.63l.197.42.13.03c.07.015.21.048.307.073.098.026.25.046.337.046h.159l-.026-.227-.026-.228.083-.125.082-.126-.05-.133a.953.953 0 0 1-.051-.282v-.15l.1-.085.101-.087-.084-.128-.084-.128-.014-.458-.014-.457.103-.11.103-.11-.08-.155a.785.785 0 0 1-.08-.298v-.144l.083-.119.083-.118-.05-.033a.498.498 0 0 1-.111-.148l-.061-.116.076-.154.077-.153-.1-.162c-.126-.208-.124-.315.006-.445l.104-.104-.155-.177-.155-.177v-.3l.131-.032.132-.033.186.058c.396.124.82.534.82.793v.112l-.092.084c-.126.113-.196.106-.486-.048l-.247-.131-.078.078-.078.078.128.194.129.195.28.088c.155.049.31.122.343.163l.062.075-.029.076-.029.076-.167-.031a1.48 1.48 0 0 1-.358-.136l-.191-.104-.053.053-.053.053.132.157.132.157.273.125.272.125.054.1.055.102-.079.065-.078.064-.213-.11a3.177 3.177 0 0 1-.326-.191l-.114-.083-.035.09-.034.09.123.23.123.23.178.097c.097.053.222.14.277.193l.1.096-.065.064-.064.065-.252-.14c-.285-.159-.365-.17-.451-.067l-.06.074.098.224.1.225.126.031.127.032.184.204.184.204v.343l-.072.06-.073.06-.234-.079c-.295-.1-.364-.1-.403.003l-.032.083.091.158.092.16.173.086a.624.624 0 0 1 .218.169l.046.08-.03.077-.03.077-.114-.034a1.038 1.038 0 0 1-.248-.127c-.145-.103-.196-.086-.196.063 0 .123.145.409.235.461a.15.15 0 0 1 .07.115v.073l-.166-.005a1.694 1.694 0 0 1-.317-.046zm-1.39-.896c-.283-.56-.466-.73-.792-.73h-.117l-.063.076-.063.076.036.19.036.191.189.18.189.18.378.129c.465.16.448.184.208-.292zm2.177-.745c0-.079-.202-.307-.239-.27-.032.032.147.336.2.336.021 0 .04-.03.04-.066zm.128-3.588c-.128-.248-.608-.545-.815-.503l-.085.017.212.242.213.24h.113c.062 0 .157.034.212.075a.378.378 0 0 0 .163.077l.065.002zm-35.967.637c-.378-.129-.559-.225-.695-.37l-.136-.143-.033-.153a2.506 2.506 0 0 0-.087-.292l-.053-.14.138-.208.137-.208-.064-.16c-.106-.266-.33-.562-.631-.838l-.286-.262-.686-.331-.685-.331.02-.063c.011-.034.068-.07.126-.078l.106-.015.59.306.59.307.723.25c.397.138.787.275.866.306.224.088.216.07-.083-.176-.414-.34-.534-.57-.38-.723l.06-.061H95c.1 0 .33.046.511.101l.33.101h.476l.033-.104.034-.104-.06-.252-.061-.251.032-.085.033-.085.074.074.073.074.044.234c.057.304.035.488-.073.607l-.087.096h-.469l-.366-.101c-.571-.159-.725-.134-.533.085.113.13.659.574.71.579.021.002.175.099.342.216l.303.212-.024.05-.023.051-.127-.007c-.07-.004-.367-.101-.66-.217-.41-.162-1.405-.513-1.456-.513a3.05 3.05 0 0 1 .467.635l.177.318.303.06.304.059.242.184c.272.207.313.252.524.57l.15.226v.284l-.14.153-.14.154-.228.024-.23.024zm.766-.36.029-.114-.178-.274c-.255-.394-.695-.705-.997-.705H94.8v.336l-.063.08a.562.562 0 0 1-.15.124l-.086.045.095.212.095.212.156.081c.086.045.156.099.156.12 0 .02.04.04.09.044.048.003.225.026.393.051l.305.046.115-.072.115-.072zm-1.452-.788c0-.028-.01-.05-.022-.05-.013 0-.037.022-.054.05l-.032.05h.054c.03 0 .054-.022.054-.05zm36.4-1.724-.032-.053.043-.166a.71.71 0 0 0 .025-.25l-.018-.084-.186-.089-.186-.088-.472-.025-.471-.024v-.126l.151-.03.151-.03-.03-.078-.029-.077-.045.027c-.118.073-.605-.242-.605-.391v-.093l.097-.06.097-.061-.25-.116-.248-.115v-.101c0-.14.071-.172.455-.207l.332-.031-.33-.16-.33-.161-.229.053-.229.053-.33-.03-.33-.029-.064-.087a.358.358 0 0 1-.063-.177v-.09l.13-.086.13-.085.058.06.059.058-.117.082-.116.081.049.05.049.048.292.003.292.003.045-.08.045-.08.25.029c.136.016.309.014.383-.005l.136-.034-.063-.077-.063-.076.053-.054.054-.053.11.11.111.11.187-.027c.102-.015.295-.043.427-.06l.24-.033.355.087.354.087.059.07.058.07-.027.071c-.067.175-.594.391-.594.244v-.093l.127-.058.127-.058v-.146l-.216-.038a1.963 1.963 0 0 0-.714.01l-.144.03.08.087c.19.21.074.264-.174.08l-.172-.127h-.117c-.181 0-.14.077.098.183.12.053.302.174.407.268l.19.17v.257l.084.062.084.06-.031.052-.032.051-.414.029-.413.028-.05.049-.049.05.347.132c.38.144.613.175.872.113l.17-.04-.017.117-.017.117-.127.035-.127.035.094.005a.965.965 0 0 1 .291.116l.197.11.053.161.053.161-.065.195c-.066.198-.156.274-.215.18zm-.95-1.867-.017-.086-.17-.044a1.414 1.414 0 0 0-.38-.028l-.21.015.33.112c.18.06.359.112.396.114l.067.003zM97.44 122.1c-.07-.05-.21-.146-.31-.213a6.783 6.783 0 0 1-.58-.491c-.436-.405-.482-.428-.482-.242v.127H96c-.097 0-.133-.112-.102-.314l.025-.168-.434-.43-.435-.429v-.183h.053c.077 0 .353.214.328.254-.011.019.104.157.256.308l.278.273v-.184c0-.102.013-.22.03-.262l.029-.077.071.027.071.028-.023.318-.023.32.513.475c.702.652 1.072.892 1.02.66a3.37 3.37 0 0 1-.032-.248c-.022-.22-.031-.246-.292-.845-.109-.249-.187-.463-.173-.476.013-.014-.01-.09-.05-.168a.714.714 0 0 1-.075-.27v-.127l.106-.074.106-.074.157.045c.31.089.696.624.698.966v.132l-.104.094-.104.094-.154-.058-.155-.058.034.086c.076.194.228.859.228 1.003l.001.155-.06.061c-.084.083-.196.072-.346-.035zm.436-1.588-.033-.21-.102-.143c-.125-.176-.342-.35-.435-.35h-.07v.288l.102.092.102.092v.107l.001.106.164.114c.09.063.195.115.234.115h.07zm30.298.388-.216-.279h-.14v-.146l.112-.035.112-.036.079.119c.043.065.152.207.243.316.091.109.165.23.165.27v.07h-.14zm-.298-1.312a1.704 1.704 0 0 0-.386-.281l-.22-.11-.302-.005-.301-.004-.21.107a1.007 1.007 0 0 1-.288.107h-.078v-.203h.05a.051.051 0 0 0 .052-.05v-.051h-.28l-.162-.1a.71.71 0 0 1-.22-.207l-.058-.11.03-.122.031-.122h-.155c-.085 0-.236-.034-.335-.075l-.18-.075.017-.115.016-.116.265-.127c.31-.149.326-.176.103-.181a9.777 9.777 0 0 1-.393-.019l-.229-.015-.474.14-.475.138-.122-.056-.123-.055v-.202l.099-.053a.464.464 0 0 1 .177-.052h.08v.152h.07c.159 0 .802-.23 1.352-.482.322-.147.763-.329.982-.404l.398-.136.425-.056.424-.057.08.066.079.065v.286l-.171.181-.171.181h-.268l.002-.063c.001-.035.073-.11.16-.165a.946.946 0 0 0 .239-.225l.08-.122-.31.032c-.583.061-1.186.251-1.796.566l-.33.171.126.027c.07.015.219.042.33.06.112.018.301.075.42.127l.216.095.05.13.049.13h.314l-.016.086-.017.087-.228.065a3.848 3.848 0 0 0-.421.15l-.193.086.015.079.016.079.228.087.228.088.229.002.228.002.272-.127c.15-.07.315-.126.368-.126h.097v.091c0 .05-.025.116-.055.146l-.054.054.138.035c.29.073.784.496.784.671v.07h-.067c-.036 0-.14-.077-.23-.17zm-1.896-1.469-.016-.114-.225-.016-.225-.016-.225.086-.225.086.069.043.069.044h.397l.397.001zm-25.852.728-.148-.148v-.211h.048c.026 0 .08.047.121.105l.074.105.022-.066a.408.408 0 0 0-.02-.194c-.022-.07-.1-.345-.171-.61a10.72 10.72 0 0 0-.215-.71l-.084-.227-.04.176c-.022.097-.027.25-.012.342l.028.165-.084.033-.084.032-.048-.071-.047-.071.03-.253a4.09 4.09 0 0 1 .088-.464l.056-.212-.241-.628-.344-.894a2.581 2.581 0 0 1-.13-.47l-.027-.203h.163l.108.21.107.21-.059.036-.058.036.078.173c.044.095.167.41.275.698l.196.526.116-.311.117-.312.127-.1c.139-.109.274-.126.413-.051l.09.048.127.295c.07.162.15.35.178.42l.05.125.093-.243.093-.242-.06-.255a2.433 2.433 0 0 1-.058-.443v-.188l.079-.113.08-.113h.199l.054.12.055.12-.056.36c-.075.483-.075.485.078.638l.134.134h.18l.154-.209a3.22 3.22 0 0 0 .292-.533l.138-.325h.137v.1c0 .398-.556 1.165-.846 1.168l-.161.002-.128-.152c-.15-.178-.186-.189-.186-.054 0 .054-.02.112-.047.128-.026.015-.062.097-.08.18-.018.084-.056.152-.083.152h-.05l.033.105c.018.057.032.3.032.537l-.001.432-.06.073c-.034.04-.093.072-.132.072h-.071l-.051-.134-.051-.134.102-.096.102-.095-.03-.316c-.035-.396-.19-.992-.314-1.214l-.094-.17-.103-.015-.103-.015-.08.124c-.046.069-.13.267-.189.44l-.106.317.157.435c.22.607.405 1.329.442 1.715l.03.327h-.175zm1.119-3.623-.003-.216-.05.121-.048.122.03.094c.049.153.074.11.07-.121zm22.592.1-.072-.172-.192-.09-.192-.092-.39.023-.392.022-.386.212c-.213.117-.41.213-.44.213h-.053v-.087c0-.047.056-.144.124-.215l.125-.13h-.696l-.098-.09-.098-.088h-.358l-.083-.093c-.116-.128-.106-.21.045-.367l.13-.134-.382-.14-.38-.138-.092.019-.091.019.011.19.011.19-.1.1c-.055.055-.1.129-.1.164s-.048.094-.106.13l-.105.066-.072-.06c-.101-.084-.09-.232.034-.49l.107-.22-.03-.077-.03-.076-.218.018-.219.02-.226.164-.227.166-.25-.024-.252-.023-.094-.117-.095-.117.072-.071.07-.071.4-.062.4-.062-.143-.1a2.801 2.801 0 0 1-.244-.193l-.102-.093.032-.135.032-.136.138-.115c.194-.162.62-.358.866-.397l.21-.034.127.084.128.084v.235l-.129.059c-.07.032-.26.072-.419.088-.347.034-.773.123-.773.16 0 .015.109.13.242.257l.24.23.179-.013c.097-.007.312-.059.477-.115l.299-.104.491-.495.491-.495.117-.037.116-.037.049.049.048.048-.031.125-.031.125-.23.236c-.127.13-.39.343-.587.472l-.357.235.044.038c.024.021.226.097.45.168l.406.13.54-.022.54-.024.03.08.03.078-.159.18-.159.182-.25.127c-.322.163-.285.192.19.147l.384-.036.262-.224.263-.224h.184v.191l-.214.194-.214.193.1-.043c.054-.023.202-.065.328-.092l.228-.05.297.062.297.062.201.182.2.181-.014.128-.016.127-.061.02-.061.02zm-1.456-.418a.025.025 0 1 0-.051 0 .025.025 0 0 0 .05 0zm-1.16-.4c.123-.148.115-.184-.04-.184h-.13l-.148.105c-.17.12-.186.182-.06.215a.37.37 0 0 0 .377-.136zm-1.533-.21a.025.025 0 1 0-.05 0 .025.025 0 0 0 .05 0zm-1.181-.263a.416.416 0 0 0-.178 0l-.089.023h.356zm.842-1.134c.173-.001.34-.057.34-.114v-.052l-.223.03c-.122.017-.286.06-.363.095l-.141.065.122.03.122.03.016-.042c.01-.023.067-.042.127-.042zm1.482.051c.017-.028.02-.05.006-.05s-.04.022-.057.05c-.017.028-.02.051-.006.051s.04-.023.057-.05zm-15.341 1.626-.091-.1-.024-.243-.023-.242.06-.224.06-.223.145-.145.144-.144h.134a.61.61 0 0 1 .245.061.454.454 0 0 0 .233.046l.122-.014-.034.21-.034.211.054.2.054.2h.068c.037 0 .213-.116.391-.259l.324-.259.02.093.018.093-.257.236-.256.236-.136.034-.136.034-.122-.08-.121-.079v-.075c0-.107-.09-.093-.125.02-.016.051-.117.188-.224.304l-.194.21h-.203zm.332-.216c.158-.167.258-.38.278-.59l.017-.184-.053-.064c-.03-.035-.105-.064-.168-.064h-.115l-.088.134-.087.133-.027.295c-.041.454.035.56.243.34zm3.276-.24-.09-.1-.006-.217c-.003-.12.011-.343.033-.497l.068-.483c.115-.823.84-2.536 1.162-2.748l.102-.067.075.046.074.046.02.374.018.373-.1.226a9.55 9.55 0 0 0-.187.455c-.162.433-.713 1.328-.922 1.498l-.063.051-.055.366c-.108.724-.12.723.58.028l.55-.546.124-.28c.068-.153.139-.29.157-.304a.969.969 0 0 0 .119-.178l.086-.153h.133l.015.106.015.105-.287.569-.286.568-.026.196-.027.196.05.031.052.032.21-.228.21-.228.088-.001h.088l-.067-.043-.067-.042.129-.153c.295-.35.948-1.845.753-1.725-.02.014-.084-.009-.139-.05l-.1-.073.07-.044c.04-.024.097-.035.127-.024.107.039.172-.058.279-.41.059-.196.159-.448.223-.56l.116-.203h.2l-.015.185c-.008.101-.07.329-.14.505-.15.384-.148.368-.027.303a.464.464 0 0 1 .178-.053h.08v.14l-.247.106-.248.107-.055.14c-.078.197-.191.662-.314 1.285l-.104.53.029.074.028.075.163-.197c.421-.51.715-.993.822-1.354.097-.326.097-.347.002-.347h-.076v-.15l.122-.08.123-.08.21-.493c.117-.27.256-.546.31-.612l.098-.12.076.03.076.029v.14c-.001.079-.057.3-.126.493-.068.193-.113.369-.1.39l.024.038.154-.076.154-.077.074.028c.168.065-.049.235-.3.235-.16 0-.259.094-.352.336a10 10 0 0 1-.236.539c-.085.18-.155.362-.155.403a.22.22 0 0 1-.043.122c-.057.063-.211.632-.211.777v.113l.092-.05c.05-.027.255-.208.453-.402l.361-.352.062-.222c.219-.79.867-2.077 1.046-2.077h.064l.034.18.033.18-.064.24c-.036.13-.104.319-.152.416a3.45 3.45 0 0 0-.152.381c-.068.213-.29.572-.485.788l-.116.127-.033.18-.033.182.074.062.075.061.237-.126c.131-.07.315-.194.41-.277l.171-.15.156-.31.156-.308.223-.233.223-.233.107.057.106.057v.076c0 .136-.149.436-.305.614-.084.095-.152.194-.152.22 0 .025-.069.086-.153.136-.16.094-.18.148-.105.267l.045.072.348-.084.347-.084.468-.242.468-.241.058.058.057.057-.054.1-.053.1-.294.137c-.162.076-.337.16-.39.19a2.11 2.11 0 0 1-.783.195h-.218l-.121-.121-.122-.122-.27.181-.27.182-.186.003-.187.002-.105-.096c-.058-.052-.106-.131-.106-.175v-.079l-.267.26c-.412.4-.662.501-.817.33l-.084-.093v-.41l-.247.247-.247.247h-.103a.243.243 0 0 1-.164-.075l-.063-.075-.003-.312-.003-.312-.07.133c-.038.073-.091.133-.118.133-.027 0-.05.029-.05.064s-.056.125-.126.2c-.07.076-.127.157-.127.18 0 .06-.305.343-.451.418l-.12.063-.123-.122-.122-.122-.011-.16-.012-.16-.123.112-.304.282c-.379.355-.547.42-.689.262zm4.19-1.043a.025.025 0 1 0-.052 0 .025.025 0 0 0 .051 0zm-3.14-1.844.195-.472.021-.226.021-.226h-.037c-.127 0-.976 2.02-.971 2.31.002.111.585-.94.77-1.386zm3.85.778a.025.025 0 1 0-.05 0 .025.025 0 0 0 .05 0zm.051-.102a.025.025 0 1 0-.05 0 .025.025 0 0 0 .05 0zm.197-.353c.054-.122.113-.276.13-.341l.031-.119-.116.229c-.063.125-.144.293-.179.371l-.063.143.05-.03c.027-.017.093-.131.147-.253zm-3.269.106-.094-.069.035-.09.035-.09.1.09c.18.163.115.299-.076.16z" transform="translate(-92.2 -109.993)"/><path style="fill:#f1d1ae" d="M117.202 151.157c0-.025.034-.058.076-.074l.076-.03.002.062.002.062.062-.078.062-.079.38-.09a4.6 4.6 0 0 0 .559-.167c.3-.129.985-.38 1.093-.402.056-.012.11-.044.118-.072.01-.028.05-.051.089-.051.09 0 .522-.314.527-.383.002-.029.05-.092.106-.14.057-.05.163-.226.236-.393.072-.167.145-.304.163-.304.017 0 .033-.12.036-.266.02-1.24.02-1.862-.005-1.926l-.03-.075-.15.022-.15.022v.057c-.002.061-.319.287-.403.287-.027 0-.11.055-.182.123l-.134.124-.161-.003a.695.695 0 0 1-.2-.025l-.038-.022.06-.111.059-.111-.01-.234-.011-.233.078-.065.08-.066-.019.202a.894.894 0 0 1-.052.258l-.034.054.047.03.047.028-.026.098-.025.097.194-.067c.106-.036.202-.092.212-.123.021-.063.418-.347.518-.37a.622.622 0 0 0 .185-.123l.12-.108.028-.527.027-.528.08-.254a1.34 1.34 0 0 1 .12-.296l.038-.043.035.056.034.056-.086.393c-.047.216-.104.413-.127.438l-.041.045.07.07c.039.039.089.068.111.064.096-.017.168.009.168.059 0 .03-.017.043-.038.031-.021-.012-.087-.004-.146.018l-.108.041.025.132.025.133.068-.057.068-.056.053.033c.076.047.065.128-.017.128-.039 0-.096.031-.127.07l-.058.068.004.503c.01 1.004.001 1.243-.052 1.629-.03.216-.072.405-.092.42-.02.015-.044.083-.051.15-.022.197-.5.868-.618.868a.053.053 0 0 0-.054.051c0 .028-.027.051-.06.051-.032 0-.095.031-.14.07-.044.037-.36.187-.703.332l-.623.263-.05-.03-.05-.031v.12l-.124-.025-.125-.024.01.05.01.05-.152.046a.594.594 0 0 1-.241.023l-.09-.022v.104l-.127-.024-.129-.025-.027.044c-.015.025-.083.044-.151.044h-.124zm-1.75-.816-.092-.1.025-.257.024-.256.089-.097c.048-.054.077-.117.062-.14-.014-.024.029-.157.096-.296.068-.14.123-.282.123-.317 0-.035.022-.104.048-.153.026-.048.134-.282.24-.52.106-.237.217-.448.245-.469l.052-.037h-.064l-.063-.002v-.342l-.077-.063-.076-.064-.183.03-.182.03-.276.208c-.358.27-.673.613-.832.907l-.127.235-.05-.025c-.028-.014-.05-.074-.05-.132l.001-.107-.078.005-.077.005v-.152l.089.007.089.007v-.084c0-.045.03-.14.065-.21a4.65 4.65 0 0 0 .157-.37c.05-.132.126-.275.167-.317l.076-.076.047.03c.082.05.05.2-.08.378-.07.094-.127.207-.126.25v.08l.14-.16c.162-.186.68-.577.764-.577.033 0 .06-.02.06-.045 0-.025.068-.055.152-.067l.152-.023v.097l.07-.058.07-.058.075.029c.08.03.162.171.22.374l.034.121.15-.26a1.77 1.77 0 0 1 .303-.387l.153-.13h.234l.082.126.082.125v.154c0 .21.048.193.24-.088.09-.132.269-.36.398-.507l.234-.266h.349l.092.151.093.152.11-.126c.06-.07.13-.127.154-.127.025 0 .058-.047.073-.105l.028-.106.118.017a.318.318 0 0 1 .184.105l.067.09-.034.054-.033.054-.11-.097-.108-.098-.09.094a.46.46 0 0 0-.095.132 1.029 1.029 0 0 1-.127.195l-.12.157v.275l-.002.275-.064.127-.064.127h-.2l-.014-.127c-.007-.07.03-.264.083-.432l.097-.304-.049-.126a.39.39 0 0 0-.103-.161l-.056-.035-.106.05c-.1.048-.463.497-.67.83-.052.084-.11.164-.13.179-.077.055-.138.305-.17.69-.046.531-.099.791-.244 1.188l-.12.33-.135.076-.133.076-.087-.087-.086-.086.006-.253.006-.252.134-.347.19-.498c.03-.084.116-.278.19-.432l.135-.28.01-.198a.867.867 0 0 1 .038-.242c.014-.023.002-.042-.028-.042h-.053v-.203h-.074c-.11 0-.364.29-.563.643l-.176.313-.052.498-.051.498-.082.046-.081.045.055.035.056.034-.088.277c-.048.153-.104.285-.126.295-.02.009-.026.036-.012.06.03.048-.12.396-.212.493a.438.438 0 0 0-.076.108c-.009.025-.065.06-.123.078l-.106.032zm.27-.244c.11-.227.313-.74.333-.85l.082-.42c.06-.304.038-.491-.033-.286-.018.053-.142.36-.274.68-.257.622-.332.88-.28.964.052.084.098.06.171-.088zm1.243-.558c.072-.143.207-.69.261-1.054l.03-.203-.093.117a1.65 1.65 0 0 0-.182.431c-.049.174-.11.368-.137.432a.836.836 0 0 0-.048.267v.15h.05c.026 0 .08-.063.119-.14zm-.728-1.156a.025.025 0 1 0-.051 0 .025.025 0 0 0 .05 0zm-6.223.838c-.062-.1.02-.293.23-.534l.203-.235-.03-.047c-.015-.026-.068-.047-.117-.047a.269.269 0 0 1-.157-.064l-.068-.063.037.065.037.065-.144-.03a2.498 2.498 0 0 0-.308-.043c-.09-.006-.192-.038-.226-.072l-.062-.061h.2c.111 0 .33.021.489.047.158.026.33.036.381.023l.095-.025.086-.15c.048-.084.086-.157.086-.163 0-.006.034-.097.078-.2.098-.235.098-.268.002-.364l-.077-.077-.164.055a.9.9 0 0 0-.245.124.296.296 0 0 1-.159.07h-.079l-.187.228-.187.228h-.23l-.116-.123-.116-.123.09-.234c.102-.268.087-.31-.07-.2l-.113.079-.206.41-.206.409-.291.297-.292.298h-.272l-.008-.114c-.036-.526.189-.87.831-1.275l.291-.183.03-.122a.893.893 0 0 0 .015-.266l-.017-.144-.16-.033-.16-.032-.362.124-.361.125-.084-.032-.084-.032.05-.049c.026-.027.194-.106.373-.176l.325-.127h.427l.114.093.115.093.005.229.005.229.178-.005.178-.005.016.114.016.115.086-.001a.47.47 0 0 0 .212-.101c.153-.12.235-.127.292-.025l.042.076.21-.083.211-.082.13.032.13.033.076.148.077.149-.066.193-.066.194-.065-.014-.064-.014.03.048c.016.026.006.107-.021.179-.057.149-.03.167.082.055l.077-.077.05.03.05.032-.025.065a.123.123 0 0 0 .03.118l.053.054-.03.078-.03.08-.152-.031-.152-.03-.136.145c-.075.08-.208.271-.295.424l-.159.28-.084.015-.084.016zm-1.742-.806c.092-.081.19-.155.218-.166.028-.01.045-.035.038-.055-.007-.02.056-.145.14-.277.084-.131.152-.27.152-.307v-.068l-.263.194-.263.195-.09.176c-.211.414-.186.53.068.308zm1.518-.787c.37-.368.167-.356-.27.016l-.088.074.062.04c.095.06.11.054.296-.13zm3.28 1.043-.084-.092v-.469l.044-.028c.025-.015.055-.096.068-.18l.022-.154h-.04a1.2 1.2 0 0 0-.233.09l-.192.088-.264.265-.264.265-.13.033a.427.427 0 0 1-.209.002l-.08-.03.017-.14.016-.14.3-.155c.167-.085.311-.182.323-.216l.02-.062-.087-.033-.086-.033-.184.065c-.102.037-.298.12-.436.186l-.251.12-.092-.028c-.143-.046-.11-.091.15-.213.39-.18.532-.225.787-.245l.242-.018.078.119.077.118.243-.13.243-.129.087.033a.238.238 0 0 1 .119.117l.032.084-.058.161a2.416 2.416 0 0 0-.091.4l-.033.24.096-.002h.096l.177-.17c.184-.174.263-.278.365-.476l.058-.114h.187v.067c0 .036-.043.156-.095.266a3.08 3.08 0 0 0-.133.323l-.038.122.18-.111.18-.111.028.045.028.045-.14.124a1.015 1.015 0 0 1-.221.156l-.081.031-.057-.057a.255.255 0 0 1-.057-.157v-.1l-.115.1c-.094.083-.353.222-.413.222a.487.487 0 0 1-.1-.093zm-1.02-.422.097-.11-.114.06c-.063.034-.114.083-.114.11 0 .072.024.061.132-.06zm.174-.628a.025.025 0 1 0-.051 0 .025.025 0 0 0 .05 0zm-8.885-1.01-.061-.073.053-.033c.03-.018.053-.054.053-.08v-.048h-.144a.824.824 0 0 1-.304-.08l-.16-.08-.05.032-.052.032-.28-.089-.282-.089-.172-.171-.171-.172-.033-.173-.032-.173.076-.146c.041-.08.16-.23.262-.333l.188-.187-.034-.034c-.019-.019-.188-.035-.375-.037l-.341-.002v-.304l-.272.016-.27.017.016-.09.018-.09.243-.061c.133-.034.276-.09.316-.124l.074-.061-.03-.048a.385.385 0 0 0-.153-.096l-.124-.047-.209.138-.208.139-.187-.005c-.22-.006-.408-.096-.408-.195 0-.086.137-.23.22-.23l.06.001-.077.05-.076.049h.057c.032.001.087-.035.124-.079l.066-.08.232.017.232.016-.016-.101a.374.374 0 0 0-.115-.187l-.1-.085-.341-.076-.342-.075-.264.016c-.145.009-.287.03-.316.048l-.052.033-.153-.079-.152-.079.028-.164c.045-.263.054-.276.206-.309a.793.793 0 0 0 .216-.079l.072-.048-.082-.125-.082-.125-.226-.034-.226-.034-.026-.1-.026-.098-.26.134-.26.135-.035-.035-.035-.036.061-.098.062-.098-.14-.033a.465.465 0 0 1-.221-.136l-.083-.103.025-.094.025-.094h.146l-.029-.046-.028-.047.058-.02c.032-.01-.082-.061-.253-.113l-.313-.095v-.184l.276-.08c.15-.044.302-.112.335-.153l.06-.072-.132-.158c-.073-.086-.132-.143-.132-.126 0 .016-.07-.005-.154-.05l-.155-.08-.37.022-.37.02-.085-.062c-.097-.071-.11-.19-.033-.334l.053-.098h.117c.064 0 .224.032.354.071l.237.072.025-.042.026-.041-.206-.163-.205-.162-.29-.002a2.06 2.06 0 0 0-.43.037l-.14.039v-.213l.127-.032.126-.032-.024-.04c-.013-.021-.104-.054-.2-.072l-.177-.033-.152-.152-.151-.151-.035-.231-.034-.232.054-.055.055-.054.047.122c.026.067.067.188.091.269l.045.147.136.102.137.102.485.005.484.005.027.068c.04.102-.016.16-.155.16-.174 0-.154.07.041.142.091.033.24.13.33.216l.166.156v.283l.093.085c.05.046.126.084.168.084.041 0 .137.064.212.142l.136.143v.267l-.147.105a.557.557 0 0 1-.232.105h-.084l.029.047c.016.025.103.062.193.082.091.02.205.056.255.082l.09.047-.054.1c-.03.054-.082.099-.118.099a.335.335 0 0 0-.153.065l-.09.064.033.083.031.082.467-.016c.256-.01.51-.024.566-.033l.1-.017.017.085.017.085-.117.037-.117.037.203.07.203.068.09.107.088.107v.28l.198.032.198.032.029.076a.24.24 0 0 1 .002.148l-.027.071.27.058.27.058.192.126.192.127.03.15c.035.173.09.226.286.273l.142.034.05.133.051.133-.102.11-.103.109.061.162.062.163.28.01c.155.006.384.003.51-.005.126-.009.43-.026.675-.04l.445-.023.242.08.242.08.188.156.19.156v.251l-.132.13-.13.132-.057-.057-.056-.056.123-.132.124-.132-.163-.146-.163-.145-.218-.061-.218-.061-.457.003-.457.003-.236.132c-.13.073-.307.216-.394.318l-.158.184v.134c0 .073.046.223.102.333.056.11.102.184.102.166 0-.027.386.082.71.2.043.015.239.037.437.047l.36.02.211-.214.212-.214.055.055.055.055-.142.13-.141.132.037.037.038.038.432-.013c.237-.007.477-.03.533-.05l.1-.037-.151-.156-.152-.155.051-.184c.028-.102.079-.203.112-.225a1.35 1.35 0 0 0 .189-.188l.127-.148-.2.12a3.175 3.175 0 0 0-.431.339c-.233.219-.391.306-.45.248-.035-.036.446-.485.522-.487.028 0 .105-.058.17-.127.066-.07.148-.126.183-.126s.104-.045.154-.1c.095-.106.473-.307.576-.307.137 0 .039.152-.32.495-.21.2-.408.422-.441.494l-.06.13.066.122c.036.068.109.134.161.147l.095.025v.216l-.124.047c-.069.026-.415.058-.77.072l-.644.025-.137.132-.138.131zm.452-.412a.025.025 0 1 0-.051 0 .025.025 0 0 0 .05 0zm-1.93-.457a.025.025 0 1 0-.052 0 .025.025 0 0 0 .051 0zm.152-.61a.025.025 0 1 0-.051 0 .025.025 0 0 0 .05 0zm1.371-.559a.025.025 0 1 0-.05 0 .025.025 0 0 0 .05 0zm-2.518-.716c.044-.017.08-.051.08-.076v-.045l-.114.021a1.85 1.85 0 0 1-.229.025l-.114.004v.102h.148a.81.81 0 0 0 .229-.031zm-.741-1.03.067-.043-.084-.032a1.174 1.174 0 0 0-.303-.033h-.218l-.063.076-.064.076h.299c.164 0 .328-.02.366-.044zm-.398-.692a.025.025 0 0 0-.051 0 .025.025 0 0 0 .05 0zm-2.22-2-.024-.096-.125-.057c-.159-.072-.171-.071-.171.01v.067l.165.079c.09.043.169.082.173.085a.292.292 0 0 0-.017-.089zm.12-1.006-.034-.034v.136l.034-.034.034-.034zm23.616 7.099-.03-.047.056-.035.055-.034-.028-.07-.027-.072h.043c.024 0 .072.035.106.076l.064.077-.064.076c-.072.087-.133.097-.175.029zm3.249-3.661c.017-.028.043-.051.057-.051.014 0 .01.023-.006.05-.018.029-.043.051-.057.051-.014 0-.012-.022.006-.05zm.127-.127a.025.025 0 1 1 .05 0 .025.025 0 0 1-.05 0zm5.435-.588v-.053l.051.031c.028.017.05.042.05.054 0 .012-.022.022-.05.022-.028 0-.05-.024-.05-.054zm-4.52-.327a.025.025 0 1 1 .05 0 .025.025 0 0 1-.05 0zm.126-.127c.017-.028.043-.05.057-.05.014 0 .011.022-.006.05-.017.028-.043.051-.057.051-.014 0-.011-.023.006-.05zm3.937.026a.025.025 0 1 1 .051 0 .025.025 0 0 1-.05 0zm-3.81-.153a.025.025 0 1 1 .051 0 .025.025 0 0 1-.05 0zm3.455-.152a.025.025 0 1 1 .05 0 .025.025 0 0 1-.05 0zm-1.333-1.212c-.132-.094-.228-.182-.214-.197.015-.014-.02-.038-.079-.054l-.105-.027-.288.146c-.34.17-.366.163-.222-.07.146-.235.094-.653-.095-.77-.029-.018-.052-.055-.052-.083v-.051l.16.113.159.114h.285l.088-.072c.153-.126.761-.975.924-1.292.086-.167.158-.288.16-.269.005.073-.874 1.819-.915 1.819h-.043l.055.165c.03.09.124.256.209.368l.203.267c.075.098.03.077-.23-.107zm-1.898-1.874-.097-.115.114.097c.108.091.138.132.097.132a.553.553 0 0 1-.114-.114zm-.478-.47a.025.025 0 1 1 .051 0 .025.025 0 0 1-.05 0zm-.406-.407a.025.025 0 1 1 .05 0 .025.025 0 0 1-.05 0zm-.457-.406a.025.025 0 1 1 .05 0 .025.025 0 0 1-.05 0zm-.285-.287-.036-.059.059.036c.032.02.058.047.058.059 0 .042-.044.022-.08-.036zm4.687-.737c-.018-.019-.034-.076-.034-.127v-.093h.072c.082 0 .128.095.093.19-.026.07-.079.082-.13.03zm-5.52-.144a.025.025 0 1 1 .05 0 .025.025 0 0 1-.05 0zm6.005-.846c.027-.08.14-.093.144-.018.001.028-.035.059-.082.069l-.084.017zm-33.782-.462-.055-.067-.005-.202-.007-.303c-.003-.108-.104-.648-.127-.678-.008-.01-.086.064-.174.165-.089.1-.192.183-.23.183h-.068l.053-.152c.03-.084.074-.153.1-.153.024 0 .045-.034.045-.076 0-.042.023-.076.05-.076.029 0 .052-.03.052-.065v-.064l-.394-.075-.394-.076-.015-.084-.016-.084.285-.017.285-.018.048.048.048.049v-.115l.099-.016.098-.016-.2-.227c-.313-.355-.232-.44.118-.124l.203.184.043-.07.044-.068v-.416l.002-.416.055-.035.055-.034.047.048.048.047.028.428c.016.236.04.46.052.5l.022.072.139-.129c.076-.07.2-.168.278-.217l.14-.088v.067c0 .037-.083.152-.184.255l-.184.188.032.051.031.051.38.036.381.036v.143l-.114.043a1.089 1.089 0 0 1-.32.04.708.708 0 0 0-.268.036l-.062.038.208.25.208.248-.03.05-.03.05-.29-.174c-.352-.213-.322-.25-.35.441-.013.317-.042.594-.064.616l-.04.04zm.303-1.37-.06-.06v.052c0 .068.06.128.094.094.015-.014 0-.053-.034-.086zm-.517.036a.025.025 0 0 0-.05 0 .025.025 0 0 0 .05 0zm.674-.313a.291.291 0 0 0-.152-.002l-.09.024.152.002.153.002zm-.649-.067.031-.05-.079.03c-.088.033-.104.07-.03.07.026 0 .061-.023.078-.05zm.788.024a.025.025 0 0 0-.05 0 .025.025 0 0 0 .05 0zm-.305-.203a.025.025 0 0 0-.05 0 .025.025 0 0 0 .05 0zm-.508-.101a.025.025 0 0 0-.05 0 .025.025 0 0 0 .05 0zm34.308 1.725c-.017-.043-.018-.091-.002-.107.044-.045.136.031.136.112 0 .097-.097.094-.135-.005zm.592-.992a13.893 13.893 0 0 0-.62-.121c-1.343-.237-1.919-.561-2.096-1.18l-.032-.11.074-.177.074-.177.11-.035.112-.036.218.033.218.033.178.163c.178.161.24.264.543.902l.158.333.29.058c.16.032.404.074.544.093l.254.036-.069-.082-.068-.082.03-.269c.048-.416.049-.46.012-.638l-.034-.166.054-.1c.03-.055.087-.1.128-.1.095 0 .093-.025-.015-.19l-.089-.136-.01-.256a4.139 4.139 0 0 0-.043-.44l-.033-.185.139-.128.138-.128-.083-.118-.082-.118v-.401l.08-.09.08-.088-.105-.106-.106-.106v-.11c0-.06.036-.15.08-.2l.081-.088-.11-.15-.11-.148.017-.143.017-.143.063-.021.064-.021v.317l.111.151.112.152.204.054c.214.058.452.215.426.281-.03.076-.22.06-.434-.036a1.134 1.134 0 0 0-.292-.098h-.077v.064c0 .035.053.128.116.207l.115.144.278.135.279.136.016.114.016.115h-.056c-.103 0-.382-.136-.453-.221a.244.244 0 0 0-.16-.084h-.09l-.03.08-.031.081.08.168c.092.196.173.28.466.485.379.265.238.35-.188.113l-.251-.14-.087.086-.086.085.067.238.066.237.214.091.213.092.11.153a.94.94 0 0 1 .137.3l.03.146-.082.069-.083.068-.188-.058a2.164 2.164 0 0 0-.316-.07l-.127-.014-.016.11-.016.111.08.156.08.155.197.1c.107.055.21.136.226.18l.031.08-.075.03-.075.028-.18-.107a.89.89 0 0 0-.23-.107h-.048v.342l.127.187c.198.292.179.317-.177.23zm-1.27-.526c0-.04-.02-.08-.043-.089-.023-.009-.129-.183-.235-.386l-.194-.37-.141-.12-.142-.119-.185-.034-.186-.035-.077.064-.078.065.023.243.024.244.16.154c.09.084.224.179.3.21.472.189.605.236.685.24l.089.005zm1.9-1.23a1.087 1.087 0 0 0-.22-.215l-.12-.08.09.177c.05.096.125.216.168.266l.08.09.051-.052.052-.052zm-.393-.154-.034-.034v.135l.034-.034.034-.033zm-35.137-2.71c0-.027.034-.05.076-.05.042 0 .077.023.077.05 0 .028-.035.051-.077.051-.042 0-.076-.023-.076-.05zm-.33-.05-.031-.051h.215l-.032.05c-.017.029-.051.051-.076.051s-.059-.022-.076-.05zm.737-.077a.025.025 0 0 1 .05 0 .025.025 0 0 1-.05 0zm.102-.136c0-.037.023-.101.05-.143l.05-.076v.111c0 .061-.022.126-.05.143l-.05.031zm34.873-.092a1.027 1.027 0 0 0-.297-.1l-.094-.002.029-.076.029-.076-.174-.174-.173-.173.01-.144.012-.144.16-.016.162-.016.143.076c.195.103.574.455.574.534v.064l-.124-.147c-.137-.163-.592-.42-.744-.42h-.097v.191l.228.21c.125.115.261.21.303.21.041 0 .156.038.255.085l.18.086v.133l-.09-.002c-.048 0-.18-.046-.292-.1zm-36.42-.131-.08-.08.03-.05c.036-.058.039-.056.118.096.07.134.044.146-.068.034zm1.454-.172c-.13-.175-.136-.205-.043-.205H96l.07.14.088.177c.048.102-.084.02-.182-.112zm-1.533-.078a.025.025 0 0 1 .05 0 .025.025 0 0 1-.05 0zm-.039-.164c-.092-.033-.077-.17.039-.344l.1-.153v-.127a.684.684 0 0 0-.072-.265l-.072-.14.04-.024c.054-.034.105.023.105.118 0 .042.062.142.137.22l.137.143-.058.058-.058.058.03.153.031.152-.06-.036c-.032-.02-.047-.057-.032-.08a.054.054 0 0 0-.021-.074l-.048-.03-.08.114a.468.468 0 0 0-.08.154v.04l.14-.033c.152-.037.147-.012-.012.068-.056.028-.13.041-.166.028zm.09-1.005a.025.025 0 0 0-.051 0 .025.025 0 0 0 .05 0zm1.244.89-.031-.051h.053c.03 0 .054.023.054.05 0 .028-.01.051-.022.051-.013 0-.037-.023-.054-.05zm-.328-.257c-.097-.082-.15-.15-.119-.15.101 0 .37.175.37.241 0 .096-.058.075-.251-.09zm-.307-.204v-.054l.05.032c.029.017.052.041.052.054 0 .012-.023.022-.051.022a.053.053 0 0 1-.051-.054zm-.254-.048a.05.05 0 0 1 .048-.05c.026 0 .062.023.079.05l.031.051h-.079c-.043 0-.08-.023-.08-.05zm1.092-.43a1.497 1.497 0 0 0-.317-.127c-.035 0-.064-.025-.064-.054 0-.03-.028-.049-.063-.043-.103.017-.356-.062-.526-.164-.086-.052-.168-.083-.182-.07-.013.014-.188-.032-.388-.102a3.28 3.28 0 0 0-.418-.127h-.054l.028.046.028.046-.114-.029a.984.984 0 0 1-.27-.147c-.087-.065-.425-.245-.753-.401l-.596-.284.021-.06.021-.06.08.014c.147.026.85.364.85.408 0 .024.028.044.063.045.035.001.19.06.343.13.153.07.405.166.559.213.153.047.325.106.38.13.52.225 1.066.348.815.183l-.129-.084v-.075c0-.099.073-.095.158.008.076.09.361.282.68.456l.204.11.016.082.017.082h-.068c-.037 0-.181-.057-.32-.126zm-1.6-.07c0-.034-.091-.145-.203-.248l-.202-.186.061-.038.062-.038.09.081c.05.045.09.112.09.15 0 .038.022.068.048.068.057 0 .126.199.084.241-.017.017-.03.003-.03-.03zm.676-.696c-.3-.235-.365-.497-.144-.58l.115-.045.197.05c.109.026.264.06.345.076.081.015.203.049.27.074a.694.694 0 0 0 .541-.022l.132-.068-.035-.035a.204.204 0 0 1-.044-.096l-.046-.298-.036-.235.05-.031.051-.031.028.072c.015.04.043.206.061.369l.034.296-.1.122-.098.122h-.224a3.452 3.452 0 0 1-.641-.11c-.448-.118-.624-.136-.624-.066 0 .054.2.317.298.392.04.03.063.082.052.113l-.02.058zm36.025-.367.034-.244-.092-.083a.964.964 0 0 0-.245-.144l-.152-.06-.369.002-.368.002v-.154l.099-.026.099-.026-.057-.091-.057-.091-.058.022c-.076.029-.399-.109-.479-.205l-.063-.077.017-.09.017-.09.114-.057.114-.056-.19-.06a1.18 1.18 0 0 1-.313-.153l-.121-.094.035-.057c.019-.03.128-.081.243-.112l.208-.056.26.03.26.03-.255-.132a1.408 1.408 0 0 1-.31-.204l-.055-.07-.275-.01a2.92 2.92 0 0 0-.49.029l-.216.038v-.042c0-.024.071-.048.158-.054l.159-.011.066-.09.067-.091.055.054.055.055.254-.033.254-.032-.027.085-.027.085.226.087c.125.047.287.133.36.19l.133.105-.027.07-.027.07h.2v.295l.077.029a.125.125 0 0 1 .076.107v.078h-.377c-.627 0-.697.084-.246.293l.293.135.393-.002.394-.002v.137l-.159.032-.158.032.247.093.248.093.089.108.089.108v.144c0 .186-.084.404-.156.404h-.057zm-.938-1.582c0-.026-.034-.082-.076-.123l-.075-.076-.333-.036c-.183-.02-.346-.023-.361-.007-.05.05.036.137.137.137h.099v.099l.07-.028.072-.027.033.054.034.054h.4zm.762-.56c0-.025.057-.091.127-.146.15-.118.16-.188.038-.26l-.089-.051.13-.002c.072 0 .173.03.224.067l.095.07-.033.083c-.018.047-.088.106-.155.132a.381.381 0 0 0-.157.1c-.041.067-.18.072-.18.007zm-1.01-.26-.122-.1-.094.03-.095.03.001-.068a.33.33 0 0 1 .05-.143l.05-.076v.062l.001.062.071-.028.071-.027.035.057.035.057.074-.062.074-.061.438-.005.437-.005.022.064.022.064-.123-.047-.122-.047-.365.058c-.349.055-.424.093-.313.162.059.036.068.128.012.125a.532.532 0 0 1-.16-.103zm-1.615.02.034-.034.034.034.034.034h-.135zm-.321-.115c0-.027.022-.062.05-.08l.05-.03-.03.079c-.034.088-.07.104-.07.03zm1.575-.232a.025.025 0 1 1 .05 0 .025.025 0 0 1-.05 0zm-31.998-.514-.07-.079.115.017.114.017.042-.113.042-.112-.048-.03c-.027-.017-.05-.088-.05-.159v-.128l.064.022.064.022-.015.101a.552.552 0 0 0 .033.227l.048.125-.048.086-.048.086-.087-.002a.253.253 0 0 1-.156-.08zm-.358-.193-.06-.071.047-.03.046-.028.091.1.09.101h-.077a.21.21 0 0 1-.137-.072zm-.381-.335c-.11-.111-.185-.216-.169-.233.035-.035.444.328.444.394 0 .084-.08.038-.275-.161zm.757-.393a7.65 7.65 0 0 0-.21-.492c-.12-.251-.147-.39-.088-.45.045-.044.152.074.197.218.048.15.11.21.3.295l.148.066.04-.066.041-.066-.028-.127a1.832 1.832 0 0 0-.127-.324c-.055-.108-.085-.21-.068-.228.049-.048.22.2.287.414l.06.194-.048.136-.048.137-.088.017a.498.498 0 0 1-.24-.06.49.49 0 0 0-.152-.06c0 .01.045.116.1.238.055.122.101.261.102.31.002.166-.087.09-.178-.152zm-1.145.006c-.028-.074-.065-.12-.083-.102-.018.018-.074-.004-.123-.05l-.091-.081-.033.133c-.019.073-.057.132-.086.132h-.052l.028-.203.027-.204-.463-.455-.462-.455.035-.036.036-.035.126.067c.07.037.14.111.157.165.039.122.537.599.591.566.022-.014.04-.115.04-.226v-.2h.108l-.03.297-.03.297.23.212c.224.207.284.312.178.312-.028 0-.075-.06-.103-.134zm31.93-.159a3.413 3.413 0 0 0-.26-.303c-.086-.09-.145-.175-.13-.19.046-.046.162-.03.162.023 0 .05.075.15.292.388.115.126.148.222.076.222-.021 0-.084-.063-.14-.14zm-31.24-1.015-.034-.138.1-.082.102-.082.153.023.154.022.087.097.087.096h-.08c-.045 0-.096-.023-.113-.05l-.031-.052h-.3v.305h-.045c-.024 0-.06-.062-.08-.138zm30.89-.344c-.084-.127-.445-.385-.59-.42a4.176 4.176 0 0 0-.337-.046l-.262-.028-.29.133-.29.132-.047-.03-.049-.03.08-.122c.045-.067.063-.126.041-.13a1.369 1.369 0 0 0-.251-.037l-.11-.006-.162-.136-.161-.136.027-.167.027-.167-.187-.03a9.312 9.312 0 0 1-.298-.053l-.111-.022-.032-.101-.032-.102.035-.057c.02-.03.135-.1.258-.155l.222-.099.05.031.05.031v-.209h.052c.027 0 .05.023.05.051v.05h.125c.143 0 .38.098.39.161a.996.996 0 0 0 .019.094.975.975 0 0 1 .019.105l.006.055.157-.034.157-.035-.017.091-.018.09-.228.06a2.252 2.252 0 0 0-.394.144l-.165.085v.069c0 .107.104.169.448.264l.319.09.403-.166.403-.165.052.032a.13.13 0 0 1 .051.101v.07l-.14.048-.14.048.204.04.203.04.27.18.27.179.071.136c.114.22-.012.282-.15.073zm-1.966-1.415.058-.07-.032-.083-.032-.083-.12-.03-.12-.03-.269.062c-.593.14-.534.286.12.297l.337.006zm-25.848.606-.116-.123.021-.066.022-.065.096.112.096.111.038-.062.038-.062.06.06.06.06-.031.08c-.044.114-.151.097-.284-.045zm.125-.35a25.718 25.718 0 0 1-.05-.159l-.023-.073.07.026a.208.208 0 0 1 .1.108l.031.08-.05.051-.051.051zm-.058-.379c-.047-.03-.136-.31-.247-.773a3.204 3.204 0 0 0-.123-.318 16.192 16.192 0 0 1-.118-.28c-.008-.02-.033-.03-.055-.023-.023.007-.035-.016-.029-.051.015-.082-.058-.404-.106-.47a.675.675 0 0 1-.07-.14l-.03-.09h.141l.064.178c.07.195.145.236.145.08 0-.055.02-.112.046-.127.024-.015.059-.104.077-.198l.031-.17.12-.113.121-.114.171.018.171.019.137.277c.075.153.152.352.17.443l.035.165h.139l.032-.127c.017-.07.052-.127.077-.127.061 0 .057.088-.006.127-.028.017-.05.086-.05.152 0 .067-.024.135-.053.153l-.051.032.033.397.033.396-.035.184-.034.184h-.188l-.03-.08c-.05-.127-.037-.174.045-.174h.076l.008-.089c.004-.049.006-.123.003-.165a4.205 4.205 0 0 0-.16-.965c-.06-.21-.121-.43-.137-.49l-.028-.108-.116-.062-.116-.062-.097.052c-.11.06-.174.172-.318.563l-.101.274.098.28c.054.153.086.298.07.322-.014.024-.006.044.02.044.051 0 .334.884.307.962l-.017.05zm.59-1.814a.025.025 0 1 0-.051 0 .025.025 0 0 0 .05 0zm22.72 1.592-.059-.058.05-.094.05-.094h.212l-.063.076-.063.076h.113c.166 0 .63-.142 1.112-.34l.426-.175.05.05.05.05-.189.088c-.103.05-.199.12-.213.157l-.027.069h-.16c-.087 0-.319.057-.515.126l-.355.126h-.18l-.18.002zm-23.957-.33c-.05-.052-.04-.323.022-.544l.054-.197.043.044.043.044-.04.216c-.022.118-.03.272-.016.343l.025.127h-.049a.133.133 0 0 1-.082-.034zm27.532-.206-.035-.035.21-.193.21-.192-.031-.128-.032-.127h.045c.025 0 .074.034.109.076l.063.075-.083.176c-.118.248-.366.438-.456.348zm-1.734-.066-.032-.051.245-.106c.134-.057.439-.169.676-.247l.432-.143.343-.035.343-.035v.1l-.201.034c-.111.02-.223.021-.25.004l-.048-.03-.026.064-.026.064-.004-.071-.004-.072-.092.084a.52.52 0 0 1-.241.103c-.178.023-.252.05-.676.241-.357.162-.393.17-.439.096zm-23.937-1.091-.141-.178-.102.028-.102.029.062-.044.061-.043-.07-.265-.07-.264.042-.026c.022-.013.055.013.073.059l.032.084.075-.097.075-.097-.031.258-.031.257.162.162c.289.29.582.046.862-.715.054-.148.155-.19.155-.065 0 .079-.314.706-.42.842-.096.121-.304.252-.402.252h-.088zm-2.002-.318a.298.298 0 0 1 .003-.085c.004-.025-.02-.064-.056-.086l-.065-.04.037-.037.038-.038.044.048c.024.026.06.099.079.161l.034.115h-.054c-.03 0-.057-.017-.06-.038zm-.173-.474c-.019-.058-.02-.12-.004-.136.04-.039.061-.012.104.127l.035.114h-.05c-.029 0-.067-.047-.085-.105zm22.505.003-.032-.052.138-.164.139-.164-.35-.015-.35-.016-.093-.084-.094-.085-.17.015-.17.014-.106-.105c-.14-.139-.133-.18.048-.342l.154-.137-.04-.034a3.633 3.633 0 0 0-.455-.177l-.417-.142-.08.066-.08.066.033.169.031.169-.081.081c-.045.045-.082.114-.082.152 0 .072-.15.176-.25.176h-.055v-.369l.105-.169.104-.169-.054-.102-.055-.103-.24.031-.24.03-.128.118a.926.926 0 0 1-.248.163l-.12.044-.228-.034-.227-.035-.045-.07c-.073-.117-.055-.15.13-.226l.176-.074h.512v-.05c0-.06-.134-.198-.295-.305l-.115-.077.035-.172.034-.171.094-.025c.052-.013.094-.044.094-.068 0-.024.087-.089.194-.143l.194-.099.067.042.067.041-.121.041a.443.443 0 0 1-.16.031c-.02-.006-.038.024-.038.066v.076l.14.006.14.006-.318.075-.317.075v.13c0 .073.014.118.032.1.017-.018.098.003.18.045l.148.076.057.125.056.124h.146c.08 0 .329-.06.552-.133l.405-.134.266-.329c.373-.46.798-.76.912-.645.099.098-.475.754-.79.904-.178.085-.39.266-.39.335 0 .024.166.092.369.151.202.06.408.13.457.158l.089.05.287-.034.288-.034-.035.056-.034.055.055.034.055.034.06-.075a.411.411 0 0 1 .197-.107l.137-.032.033.053.033.053-.09.138c-.112.173-.187.233-.503.405l-.254.139.254.016c.14.01.354.001.476-.017l.222-.033.247-.23.246-.23.077.03c.145.055.008.257-.355.524l-.152.111.254-.09.254-.09.262-.012.26-.011.219.058.218.059.143.153.143.154v.243h-.047c-.026 0-.062-.046-.08-.102-.018-.056-.109-.16-.202-.23l-.17-.13-.178-.03-.178-.028-.325.057-.325.056-.288.156c-.158.086-.301.177-.317.203-.039.063-.111.06-.151-.004zm-.479-.883.141-.157-.109-.041-.109-.04-.128.035a.59.59 0 0 1-.205.024l-.076-.013.038.038.039.04-.089.097-.088.097.088.065.089.064.134-.025.134-.026zm-1.553-.183.032-.05h-.05a.11.11 0 0 0-.083.05l-.032.05h.051a.11.11 0 0 0 .082-.05zm-1-.329c.038-.038-.2-.033-.403.008l-.171.035.127.033.127.032.146-.04a.638.638 0 0 0 .174-.068zm1.009-.111-.034-.034-.034.034-.034.034h.136zm1.207-.978c.053-.058.083-.12.066-.137-.03-.03-.158.08-.292.255l-.075.098.102-.055a.9.9 0 0 0 .199-.16zm-19.91 2.294a.743.743 0 0 1 .07-.254l.06-.114h.155l-.079.113-.079.113v.282h-.136zm.28-.085v-.181h.101v.299l-.05.03-.052.032zm-2.148.042c-.02-.02-.037-.072-.037-.115v-.078l.057.057c.03.03.047.082.037.115l-.02.058zm-.126-.325a2.637 2.637 0 0 1-.082-.267l-.034-.14h.144l.054.154.054.154-.044.113-.043.113zm6.472-.296-.084-.093v-.25c0-.138.026-.342.056-.453l.055-.203.125-.12.125-.118.086.035.087.035-.102.05a.685.685 0 0 0-.2.18l-.097.133-.004.344-.004.344.056.056.056.057.156-.131.155-.131.116-.239c.137-.283.137-.395-.003-.543-.123-.131-.131-.181-.03-.181.04 0 .108.05.152.113l.079.113v-.132l.086.017.087.017-.014.263-.014.263.053.098c.052.099.24.181.27.119.031-.07.497-.465.546-.465.16 0-.26.456-.518.564l-.139.058-.13-.033-.129-.032-.03-.152c-.04-.203-.073-.19-.217.081-.207.391-.46.525-.63.336zm3.652-.413a1.567 1.567 0 0 1-.075-.173l-.051-.134h.044c.024 0 .058.057.076.127.038.153.08.158.231.026.064-.055.136-.088.16-.073l.044.027-.023-.066-.022-.066.324-.28c.178-.153.326-.307.328-.34.002-.035.043-.084.092-.11l.09-.048.1-.265.102-.265.106-.083.106-.084-.02-.057c-.01-.031.019-.094.064-.14l.083-.082.051.032.051.031-.055.056a.205.205 0 0 0-.055.124c0 .067-.156.418-.254.57a2.166 2.166 0 0 0-.126.273l-.077.196-.084-.032-.083-.032.05.065.05.064-.008.204a.96.96 0 0 0 .009.239l.018.036.125-.057c.07-.031.126-.07.126-.087a.97.97 0 0 1 .15-.2l.15-.169.06.038.062.038-.029-.11-.028-.11.119-.093.12-.094.034-.14c.02-.075.066-.15.104-.165l.07-.026-.029-.046-.028-.047.144-.265a4.59 4.59 0 0 0 .265-.647c.066-.21.144-.446.171-.524l.05-.142.057.021.056.022.002-.236.002-.236.125-.253.126-.253.088-.016.09-.016v.095c0 .053-.034.14-.075.194a.374.374 0 0 0-.076.15v.05l.049-.076.049-.076v.06a.118.118 0 0 1-.05.093c-.027.017-.05.076-.05.132a.741.741 0 0 1-.083.262l-.083.16.058.02c.078.025.072.111-.008.111-.072 0-.235.249-.265.403-.01.054-.079.339-.153.634a9.88 9.88 0 0 0-.154.698l-.021.163-.065.042-.065.042.058.038c.032.02.066.083.077.138l.019.1.141-.151a3.91 3.91 0 0 0 .316-.412c.096-.143.21-.274.252-.29l.077-.03v-.084c0-.047.044-.156.098-.243.053-.087.141-.341.196-.565.054-.223.144-.51.2-.635.058-.126.12-.286.142-.356.136-.455.423-.784.503-.577l.032.084-.161.462c-.089.255-.305.797-.48 1.205a13.06 13.06 0 0 0-.401 1.024l-.082.283-.074.028-.074.028-.001-.138-.001-.138-.183.218c-.168.2-.403.366-.519.366-.073 0-.16-.292-.16-.538v-.218l.05-.031c.06-.037.07-.127.014-.126-.021 0-.082.091-.136.203-.053.111-.114.202-.136.202-.021 0-.053.044-.07.096a.877.877 0 0 1-.165.242l-.135.145-.076-.017-.077-.018.072.094c.04.051.051.076.027.055l-.045-.037-.055.106a.595.595 0 0 1-.192.187l-.138.082-.098-.09a.476.476 0 0 1-.125-.225l-.026-.137.057-.035.057-.036-.089-.034-.088-.034-.152.158c-.083.087-.187.159-.23.159h-.079l.03.046.028.047-.14.105a8.248 8.248 0 0 0-.192.148.538.538 0 0 1-.165.072l-.113.03zm4.29-3.33a.025.025 0 1 0-.05 0 .025.025 0 0 0 .05 0zm-4.419 2.947a.025.025 0 1 1 .051 0 .025.025 0 0 1-.05 0zm3.461-.156c-.127-.162-.136-.225-.032-.225.042 0 .076.02.076.047 0 .026.038.085.083.13l.084.083-.052.051-.05.052zm.223-.02-.03-.049.193-.18.192-.182.139-.03.139-.03-.027-.043c-.014-.024.036-.141.111-.261l.138-.218.042-.224a.803.803 0 0 1 .118-.31.296.296 0 0 0 .076-.159c0-.042.14-.354.309-.694l.308-.62h.145l.002-.063.002-.063.071.13.071.13-.05.22c-.056.252-.225.642-.297.687l-.048.03.032.083.031.082-.068-.042-.068-.042.035.091.035.092-.125.209a2.903 2.903 0 0 1-.26.362c-.161.181-.226.335-.226.534v.146l.086.049.086.048.18-.122c.098-.067.204-.122.235-.122.09 0 .394-.33.501-.543.054-.106.168-.3.254-.43l.156-.238.145-.086.144-.086.052.053.053.052-.032.173-.033.173-.231.311-.231.311-.098.032-.099.03v.244l.089.046c.049.025.112.04.14.033a4.42 4.42 0 0 0 1.064-.393l.353-.193.07.027.07.027-.018.063c-.044.147-1.242.648-1.55.648h-.126l-.14-.15-.141-.15-.096.072a.368.368 0 0 1-.157.074c-.034 0-.12.06-.192.132l-.13.13-.164-.013-.164-.013-.114-.1c-.063-.056-.115-.137-.115-.18v-.078l-.266.26c-.338.327-.508.424-.57.323zm2.412-1.094a.025.025 0 1 0-.05 0 .025.025 0 0 0 .05 0zm-1.22-.102a.025.025 0 1 0-.05 0 .025.025 0 0 0 .05 0zm1.27-.076c0-.028-.023-.05-.053-.05h-.054l.032.05c.017.028.041.05.054.05.012 0 .022-.022.022-.05zm-1.085-.368c.161-.274.317-.636.345-.8l.03-.178-.216.444-.216.445-.102-.023-.101-.023.078.061.078.061-.02.102-.02.101.038-.037a.98.98 0 0 0 .106-.152zm-5.06 1.607c0-.007.022-.073.05-.147l.05-.133.056.034.055.034-.051.052c-.028.028-.04.079-.028.112l.024.062h-.078c-.044 0-.079-.006-.079-.014zm.087-.355c-.017-.017-.006-.091.024-.165.03-.074.061-.215.07-.313a6.04 6.04 0 0 1 .018-.216c.002-.02.038-.038.081-.038h.078l-.052.099a.443.443 0 0 0-.053.158v.06l.122-.023.123-.024-.026.069a.115.115 0 0 1-.1.068h-.074l.03.05.032.05-.092.126c-.095.131-.13.15-.181.099zm.166-.198a.025.025 0 1 0-.05 0 .025.025 0 0 0 .05 0zm0-.407a.025.025 0 1 0-.05 0 .025.025 0 0 0 .05 0zm10.008.442v-.052l.203-.034c.35-.06.34-.194-.015-.206a3.556 3.556 0 0 1-.264-.016l-.051-.009.076-.049a.715.715 0 0 1 .29-.05h.212l.075.107.076.107-.027.069c-.028.074-.093.1-.385.151l-.19.034zm-9.805-.388c0-.04.218-.406.296-.498.042-.05.059-.09.038-.09-.02 0 .021-.07.094-.156s.123-.172.111-.19c-.01-.019.01-.062.048-.097l.068-.063.032.05.03.05h-.118l.024.064.024.063-.14.254-.14.254-.062-.014-.063-.015.033.086.033.086-.112.12c-.1.107-.195.154-.195.096zm-.203-.298c0-.041.036-.089.08-.106l.08-.03-.016.084c-.01.047-.045.094-.08.106l-.064.02zm.086-.309-.028-.07.09-.096.088-.096-.02-.062-.021-.063h.08c.09 0 .108.079.03.127l-.051.032v.299h-.07a.115.115 0 0 1-.099-.071zm1.59-.469v-.082l.077.063c.042.035.076.072.076.082 0 .01-.034.02-.076.02h-.076zm-1.422-.013c0-.024.03-.07.068-.101l.069-.057.033.033.033.033-.057.068c-.064.078-.146.091-.146.024zm3.251-.082a.025.025 0 1 1 .051 0 .025.025 0 0 1-.05 0zm-2.59-.115c0-.02.023-.072.05-.114l.05-.076v.114l.001.114h-.05c-.029 0-.051-.017-.05-.038zm1.54-.046.034-.034.034.034.034.034h-.135zm-2.035-.12-.008-.106.068-.026.068-.026-.024-.091-.024-.091.08-.031.08-.03v-.085a.85.85 0 0 1 .109-.276l.109-.194.094-.024c.111-.03.117-.015.03.076a.764.764 0 0 0-.117.22l-.054.152-.064-.014-.063-.014.032.052.032.052-.092.165a1.49 1.49 0 0 1-.117.19c-.014.015-.026.058-.026.098s-.023.08-.052.09l-.053.017zm4.05-.024a.025.025 0 1 1 .051 0 .025.025 0 0 1-.05 0zm-3.428-.076-.032-.051h.054c.03 0 .054.023.054.05 0 .029-.01.051-.023.051-.012 0-.036-.022-.053-.05zm.082-.356-.011-.254h.052c.029 0 .066.052.082.116l.029.117-.053.137c-.072.191-.085.175-.099-.116z" transform="translate(-92.2 -109.993)"/></svg>